<?xml version="1.0" standalone="no"?>
<!DOCTYPE svg PUBLIC "-//W3C//DTD SVG 1.1//EN" "http://www.w3.org/Graphics/SVG/1.1/DTD/svg11.dtd" >
<svg>
<metadata>
Created by FontForge 20110222 at Mon Mar  7 08:11:39 2011
 By www-data
Copyright [c] 2008 by ShyFoundry. All rights reserved. Freeware for personal use only. To purchase a commercial license, please visit our site at http://www.shyfoundry.com.
</metadata>
<defs>
<font id="SFChromeFenders-Oblique" horiz-adv-x="375" >
  <font-face 
    font-family="SF Chrome Fenders"
    font-weight="400"
    font-style="oblique"
    font-stretch="normal"
    units-per-em="1000"
    panose-1="2 0 5 3 0 0 0 0 0 0"
    ascent="800"
    descent="-200"
    x-height="417"
    cap-height="667"
    bbox="-177 -166 1010 833"
    underline-thickness="10"
    underline-position="-70"
    unicode-range="U+0021-2122"
  />
    <missing-glyph />
    <glyph glyph-name="dollar" unicode="$" 
d="M372 83c-9 -45 -54 -83 -101 -83h-42l-14 -66c-2 -11 -9 -17 -20 -17h-50c-12 0 -13 3 -13 17l14 66h-108c-14 0 -14 4 -14 17l11 50c2 11 9 16 20 16h216c12 0 19 6 21 17l46 217c0 14 -1 16 -13 16h-150c-41 2 -67 29 -67 66c0 6 0 11 1 18l36 166c14 64 55 84 143 84
l14 66c2 11 9 17 20 17h50c11 0 13 -3 13 -17l-14 -66h108c13 0 14 -4 14 -17l-12 -50c-2 -11 -8 -17 -20 -17h-216c-11 0 -18 -5 -20 -16l-28 -134c0 -14 1 -16 12 -16h150c39 0 68 -28 68 -65c0 -6 -1 -12 -2 -19z" />
    <glyph glyph-name="percent" unicode="%" horiz-adv-x="685" 
d="M308 567c0 14 -2 16 -13 16h-50c-11 0 -18 -5 -20 -16l-28 -134c0 -14 1 -16 12 -16h50c12 0 19 5 21 16zM631 233c0 14 -2 17 -13 17h-51c-11 0 -17 -6 -20 -17l-28 -133c0 -14 2 -17 13 -17h50c11 0 18 6 21 17zM359 417c-9 -46 -54 -84 -101 -84h-83
c-41 2 -67 29 -67 66c0 6 0 11 1 18l36 166c10 47 55 84 101 84h83c36 2 68 -28 68 -65c0 -6 -1 -12 -2 -19zM588 493l-380 -480c-25 -37 -41 -54 -51 -54c-6 0 -53 22 -53 39c0 4 0 4 134 176l380 479c24 38 43 55 53 55s52 -24 52 -38c0 -5 -8 -17 -135 -177zM682 83
c-9 -45 -54 -83 -101 -83h-83c-40 0 -68 28 -68 66c0 5 0 11 2 17l35 167c9 45 55 83 101 83h84c37 2 67 -28 67 -65c0 -6 -1 -12 -2 -18z" />
    <glyph glyph-name="ampersand" unicode="&#x26;" horiz-adv-x="417" 
d="M342 333h-150c-11 0 -18 -5 -20 -16l-46 -217c0 -14 2 -17 12 -17h151zM470 350c-2 -11 -15 -17 -45 -17l-68 -316c-2 -11 -9 -17 -20 -17h-233c-39 0 -67 28 -67 66c0 5 0 11 2 17l44 209c9 46 56 83 101 83c-33 -3 -68 26 -68 65c0 6 1 12 2 18l27 125
c10 47 55 84 101 84h233c13 0 14 -4 14 -17l-12 -50c-2 -11 -8 -17 -20 -17h-216c-11 0 -18 -5 -20 -16l-28 -134c0 -14 1 -16 12 -16h258c12 0 14 -2 14 -17z" />
    <glyph glyph-name="quotesingle" unicode="'" horiz-adv-x="125" 
d="M221 550c-3 -11 -9 -17 -20 -17h-37c-7 0 -11 3 -11 8c0 9 5 17 15 17h29l6 25h-41c-12 0 -14 3 -14 17l11 50c2 11 9 17 20 17h50c13 0 14 -4 14 -17z" />
    <glyph glyph-name="parenleft" unicode="(" horiz-adv-x="208" 
d="M173 -66c-2 -11 -9 -17 -20 -17h-67c-39 2 -67 29 -67 64l144 686c10 46 54 83 100 83h67c12 0 13 -3 13 -17l-10 -50c-4 -15 -8 -16 -61 -16c-17 0 -27 -5 -29 -17l-136 -633c0 -14 2 -17 14 -17h50c11 0 13 -2 13 -16z" />
    <glyph glyph-name="parenright" unicode=")" horiz-adv-x="208" 
d="M188 0c-10 -45 -56 -83 -102 -83h-66c-12 0 -13 3 -13 17l11 50c3 16 13 16 45 16c31 0 41 1 44 17l136 633c0 13 -1 17 -14 17h-50c-11 0 -13 2 -13 16l11 50c2 11 9 17 20 17h66c37 1 68 -29 68 -65c0 -6 -1 -12 -2 -18z" />
    <glyph glyph-name="asterisk" unicode="*" horiz-adv-x="292" 
d="M319 457c-3 0 -18 9 -46 27l-10 -51c-2 -11 -9 -16 -20 -16h-34c-11 0 -12 2 -12 16l10 51c-36 -18 -55 -27 -58 -27c-13 -1 -23 26 -23 43c0 3 3 13 11 17l49 25l-39 25c-3 2 -5 5 -5 10c0 7 24 49 44 49c2 0 17 -9 45 -27l12 51c2 11 8 17 20 17h33c11 0 13 -3 13 -17
l-11 -51c36 18 55 27 58 27c14 0 24 -26 24 -43c0 -3 -3 -13 -11 -16l-50 -25l39 -25c4 -2 5 -5 5 -9c0 -15 -29 -51 -44 -51z" />
    <glyph glyph-name="plus" unicode="+" horiz-adv-x="292" 
d="M310 183c-2 -11 -9 -16 -20 -16h-67l-14 -67c-2 -11 -9 -17 -21 -17h-50c-10 0 -12 3 -12 17l14 67h-67c-11 0 -13 2 -13 16l11 50c2 11 9 17 20 17h67l14 67c2 11 9 16 20 16h50c11 0 13 -2 13 -16l-14 -67h67c11 0 13 -3 13 -17z" />
    <glyph glyph-name="comma" unicode="," horiz-adv-x="125" 
d="M98 -33c-3 -11 -10 -16 -21 -16h-38c-7 0 -10 2 -10 8c0 7 5 17 16 17h29l5 24h-41c-14 0 -14 4 -14 17l11 50c2 11 9 16 20 16h50c12 0 13 -2 13 -16z" />
    <glyph glyph-name="hyphen" unicode="-" horiz-adv-x="292" 
d="M310 183c-2 -11 -9 -16 -20 -16h-217c-11 0 -13 2 -13 16l11 50c2 11 9 17 20 17h217c11 0 13 -3 13 -17z" />
    <glyph glyph-name="period" unicode="." horiz-adv-x="125" 
d="M107 17c-2 -11 -9 -17 -20 -17h-49c-14 0 -14 4 -14 17l11 50c2 11 9 16 20 16h50c12 0 13 -2 13 -16z" />
    <glyph glyph-name="slash" unicode="/" horiz-adv-x="395" 
d="M118 -5c-31 -56 -35 -62 -48 -62c-25 1 -56 16 -56 30c0 15 279 493 406 709c16 37 33 62 47 62c22 1 57 -16 57 -31c0 -10 -66 -124 -406 -708z" />
    <glyph glyph-name="zero" unicode="0" 
d="M392 567c0 14 -2 16 -14 16h-133c-11 0 -18 -5 -20 -16l-99 -467c0 -14 2 -17 12 -17h133c12 0 19 6 21 17zM372 83c-9 -45 -54 -83 -101 -83h-167c-39 0 -67 28 -67 66c0 5 0 11 2 17l106 500c10 47 55 84 101 84h167c35 2 68 -28 68 -65c0 -6 -1 -12 -2 -19z" />
    <glyph glyph-name="one" unicode="1" horiz-adv-x="125" 
d="M107 17c-2 -11 -9 -17 -20 -17h-49c-14 0 -14 4 -14 17l135 633c2 11 9 17 20 17h50c13 0 14 -4 14 -17z" />
    <glyph glyph-name="two" unicode="2" 
d="M357 17c-2 -11 -9 -17 -20 -17h-233c-39 0 -67 28 -67 66c0 5 0 11 2 17l53 250c10 47 54 84 100 84h150c12 0 19 5 21 16l29 134c0 14 -2 16 -14 16h-216c-12 0 -14 3 -14 17l11 50c2 11 9 17 20 17h234c35 2 68 -28 68 -65c0 -6 -1 -12 -2 -19l-37 -166
c-9 -47 -54 -84 -100 -84h-150c-11 0 -18 -5 -20 -16l-46 -217c0 -14 2 -17 12 -17h217c12 0 13 -2 13 -16z" />
    <glyph glyph-name="three" unicode="3" 
d="M372 83c-9 -45 -54 -83 -101 -83h-233c-14 0 -14 4 -14 17l11 50c2 11 9 16 20 16h216c12 0 19 6 21 17l46 217c0 14 -1 16 -13 16h-133c-12 0 -14 2 -14 17l11 50c2 11 9 17 20 17h133c12 0 19 5 21 16l29 134c0 14 -2 16 -14 16h-216c-12 0 -14 3 -14 17l11 50
c2 11 9 17 20 17h234c35 2 68 -28 68 -65c0 -6 -1 -12 -2 -19l-27 -125c-10 -45 -55 -83 -101 -83c43 -5 67 -28 67 -65c0 -6 -1 -12 -2 -18z" />
    <glyph glyph-name="four" unicode="4" 
d="M357 17c-2 -11 -9 -17 -20 -17h-49c-14 0 -14 4 -14 17l33 150h-234c-11 0 -13 2 -13 16l99 467c2 11 9 17 20 17h50c13 0 14 -4 14 -17l-85 -400h166l85 400c2 11 9 17 20 17h50c13 0 14 -4 14 -17z" />
    <glyph glyph-name="five" unicode="5" 
d="M372 83c-9 -45 -54 -83 -101 -83h-233c-14 0 -14 4 -14 17l11 50c2 11 9 16 20 16h216c12 0 19 6 21 17l46 217c0 14 -1 16 -13 16h-150c-41 2 -67 29 -67 66c0 6 0 11 1 18l36 166c10 47 55 84 101 84h233c13 0 14 -4 14 -17l-12 -50c-2 -11 -8 -17 -20 -17h-216
c-11 0 -18 -5 -20 -16l-28 -134c0 -14 1 -16 12 -16h150c39 0 68 -28 68 -65c0 -6 -1 -12 -2 -19z" />
    <glyph glyph-name="six" unicode="6" 
d="M338 317c0 14 -1 16 -13 16h-150l-49 -233c0 -14 2 -17 12 -17h133c12 0 19 6 21 17zM372 83c-9 -45 -54 -83 -101 -83h-167c-39 0 -67 28 -67 66c0 5 0 11 2 17l106 500c10 47 55 84 101 84h125c12 0 13 -2 13 -17l-10 -50c-3 -11 -9 -17 -20 -17h-109
c-11 0 -18 -5 -20 -16l-33 -150h167c39 0 68 -28 68 -65c0 -6 -1 -12 -2 -19z" />
    <glyph glyph-name="seven" unicode="7" horiz-adv-x="313" 
d="M295 17c-2 -11 -9 -17 -20 -17h-50c-13 0 -14 4 -14 17l122 566h-192c-12 0 -14 3 -14 17l11 50c2 11 9 17 20 17h259c13 0 13 -4 13 -17z" />
    <glyph glyph-name="eight" unicode="8" 
d="M338 317c0 14 -1 16 -13 16h-133c-11 0 -18 -5 -20 -16l-46 -217c0 -14 2 -17 12 -17h133c12 0 19 6 21 17zM392 567c0 14 -2 16 -14 16h-133c-11 0 -18 -5 -20 -16l-28 -134c0 -14 1 -16 12 -16h133c12 0 19 5 21 16zM372 83c-9 -45 -54 -83 -101 -83h-167
c-39 0 -67 28 -67 66c0 5 0 11 2 17l44 209c9 46 56 83 101 83c-33 -3 -68 26 -68 65c0 6 1 12 2 18l27 125c10 47 55 84 101 84h167c35 2 68 -28 68 -65c0 -6 -1 -12 -2 -19l-27 -125c-10 -45 -55 -83 -101 -83c43 -5 67 -28 67 -65c0 -6 -1 -12 -2 -18z" />
    <glyph glyph-name="nine" unicode="9" 
d="M392 567c0 14 -2 16 -14 16h-133c-11 0 -18 -5 -20 -16l-47 -217c0 -14 2 -17 14 -17h150zM372 83c-9 -45 -54 -83 -101 -83h-125c-13 0 -14 4 -14 17l12 50c2 11 8 16 20 16h107c12 0 19 6 21 17l32 150h-166c-40 0 -68 27 -68 65c0 6 0 12 2 18l53 250
c10 47 55 84 101 84h167c35 2 68 -28 68 -65c0 -6 -1 -12 -2 -19z" />
    <glyph glyph-name="colon" unicode=":" horiz-adv-x="125" 
d="M107 17c-2 -11 -9 -17 -20 -17h-49c-14 0 -14 4 -14 17l11 50c2 11 9 16 20 16h50c12 0 13 -2 13 -16zM178 350c-2 -11 -9 -17 -20 -17h-50c-11 0 -13 3 -13 17l11 50c2 11 9 17 20 17h50c11 0 13 -3 13 -17z" />
    <glyph glyph-name="semicolon" unicode=";" horiz-adv-x="125" 
d="M98 -33c-3 -11 -10 -16 -21 -16h-38c-7 0 -10 2 -10 8c0 7 5 17 16 17h29l5 24h-41c-14 0 -14 4 -14 17l11 50c2 11 9 16 20 16h50c12 0 13 -2 13 -16zM178 350c-2 -11 -9 -17 -20 -17h-50c-11 0 -13 3 -13 17l11 50c2 11 9 17 20 17h50c11 0 13 -3 13 -17z" />
    <glyph glyph-name="less" unicode="&#x3c;" horiz-adv-x="216" 
d="M212 83c-3 -15 -53 -44 -68 -44c-6 0 -10 3 -12 8l-67 161l135 160c4 5 9 7 15 7c13 0 51 -29 51 -40c0 -7 -28 -43 -100 -129c32 -78 46 -119 46 -123z" />
    <glyph glyph-name="equal" unicode="=" horiz-adv-x="292" 
d="M294 108c-2 -11 -9 -16 -21 -16h-216c-11 0 -13 3 -13 16l10 50c2 11 9 17 21 17h217c11 0 12 -3 12 -17zM326 258c-3 -11 -9 -16 -20 -16h-217c-12 0 -13 2 -13 16l10 50c3 11 10 17 20 17h217c12 0 13 -2 13 -17z" />
    <glyph glyph-name="greater" unicode="&#x3e;" horiz-adv-x="216" 
d="M104 47c-4 -5 -9 -8 -15 -8c-16 0 -51 28 -51 41c0 5 5 12 100 126c-31 76 -46 118 -46 127c0 11 55 42 69 42c5 0 9 -2 11 -7l67 -160z" />
    <glyph glyph-name="question" unicode="?" 
d="M107 17c-2 -11 -9 -17 -20 -17h-49c-14 0 -14 4 -14 17l11 50c2 11 9 16 20 16h50c12 0 13 -2 13 -16zM442 417c-9 -47 -54 -84 -100 -84h-150c-11 0 -18 -5 -20 -16l-28 -134c-3 -11 -9 -16 -20 -16h-51c-11 0 -13 2 -13 16l32 150c10 47 54 84 100 84h150
c12 0 19 5 21 16l29 134c0 14 -2 16 -14 16h-216c-12 0 -14 3 -14 17l11 50c2 11 9 17 20 17h234c35 2 68 -28 68 -65c0 -6 -1 -12 -2 -19z" />
    <glyph glyph-name="at" unicode="@" horiz-adv-x="635" 
d="M322 311c-10 0 -16 -5 -19 -14l-18 -60c0 -13 1 -14 11 -14h133l27 88h-134zM662 223c-10 -41 -50 -75 -90 -75h-313c-34 0 -56 23 -56 54c0 6 1 13 4 21l26 88c14 42 57 74 96 74h149l14 45c0 13 -2 14 -11 14h-96c-8 0 -12 3 -12 9l15 50c3 11 9 16 19 16h111
c26 4 55 -23 55 -54c0 -7 -1 -13 -3 -21l-67 -221h69c10 0 16 4 18 14l73 341c0 12 -2 14 -12 14h-415c-10 0 -16 -5 -19 -14l-103 -489c0 -13 2 -15 12 -15h267c10 0 11 -2 11 -15l-9 -44c-2 -10 -8 -15 -19 -15h-281c-26 0 -60 18 -60 58l111 534c10 41 50 75 91 75h445
c31 2 60 -26 60 -60z" />
    <glyph glyph-name="A" unicode="A" 
d="M392 567c0 14 -2 16 -14 16h-133c-11 0 -18 -5 -20 -16l-33 -150h167zM357 17c-2 -11 -9 -17 -20 -17h-49c-14 0 -14 4 -14 17l68 316h-167l-68 -316c-2 -11 -9 -17 -20 -17h-49c-14 0 -14 4 -14 17l121 566c10 47 55 84 101 84h167c35 2 68 -28 68 -65
c0 -6 -1 -12 -2 -19z" />
    <glyph glyph-name="B" unicode="B" 
d="M338 317c0 14 -1 16 -13 16h-150l-53 -250h149c12 0 19 6 21 17zM392 567c0 14 -2 16 -14 16h-149l-37 -166h150c12 0 19 5 21 16zM372 83c-9 -45 -54 -83 -101 -83h-233c-14 0 -14 4 -14 17l135 633c2 11 9 17 20 17h234c35 2 68 -28 68 -65c0 -6 -1 -12 -2 -19
l-27 -125c-10 -45 -55 -83 -101 -83c43 -5 67 -28 67 -65c0 -6 -1 -12 -2 -18z" />
    <glyph glyph-name="C" unicode="C" horiz-adv-x="333" 
d="M316 17c-2 -11 -9 -17 -20 -17h-192c-39 0 -67 28 -67 66c0 5 0 11 2 17l106 500c10 47 55 84 101 84h192c11 0 13 -3 13 -17l-11 -50c-2 -11 -9 -17 -20 -17h-175c-11 0 -18 -5 -20 -16l-99 -467c0 -14 2 -17 12 -17h175c12 0 14 -2 14 -16z" />
    <glyph glyph-name="D" unicode="D" 
d="M392 567c0 14 -2 16 -14 16h-149l-107 -500h149c12 0 19 6 21 17zM372 83c-9 -45 -54 -83 -101 -83h-233c-14 0 -14 4 -14 17l135 633c2 11 9 17 20 17h234c35 2 68 -28 68 -65c0 -6 -1 -12 -2 -19z" />
    <glyph glyph-name="E" unicode="E" 
d="M357 17c-2 -11 -9 -17 -20 -17h-299c-14 0 -14 4 -14 17l135 633c2 11 9 17 20 17h300c13 0 14 -4 14 -17l-12 -50c-2 -11 -8 -17 -20 -17h-232l-37 -166h150c12 0 14 -2 14 -17l-11 -50c-2 -11 -9 -17 -20 -17h-150l-53 -250h233c12 0 13 -2 13 -16z" />
    <glyph glyph-name="F" unicode="F" 
d="M481 600c-2 -11 -8 -17 -20 -17h-232l-37 -166h150c12 0 14 -2 14 -17l-11 -50c-2 -11 -9 -17 -20 -17h-150l-68 -316c-2 -11 -9 -17 -20 -17h-49c-14 0 -14 4 -14 17l135 633c2 11 9 17 20 17h300c13 0 14 -4 14 -17z" />
    <glyph glyph-name="G" unicode="G" 
d="M357 17c-2 -11 -9 -17 -20 -17h-233c-39 0 -67 28 -67 66c0 5 0 11 2 17l106 500c10 47 55 84 101 84h233c13 0 14 -4 14 -17l-12 -50c-2 -11 -8 -17 -20 -17h-216c-11 0 -18 -5 -20 -16l-99 -467c0 -14 2 -17 12 -17h151l53 250h-67c-12 0 -13 3 -13 17l10 50
c3 11 9 17 20 17h134c11 0 13 -3 13 -17z" />
    <glyph glyph-name="H" unicode="H" 
d="M357 17c-2 -11 -9 -17 -20 -17h-49c-14 0 -14 4 -14 17l68 316h-167l-68 -316c-2 -11 -9 -17 -20 -17h-49c-14 0 -14 4 -14 17l135 633c2 11 9 17 20 17h50c13 0 14 -4 14 -17l-51 -233h167l50 233c2 11 9 17 20 17h50c13 0 14 -4 14 -17z" />
    <glyph glyph-name="I" unicode="I" horiz-adv-x="125" 
d="M107 17c-2 -11 -9 -17 -20 -17h-49c-14 0 -14 4 -14 17l135 633c2 11 9 17 20 17h50c13 0 14 -4 14 -17z" />
    <glyph glyph-name="J" unicode="J" horiz-adv-x="292" 
d="M289 83c-9 -45 -55 -83 -101 -83h-150c-14 0 -14 4 -14 17l11 50c2 11 9 16 20 16h133c12 0 19 6 21 17l117 550c2 11 9 17 20 17h50c12 0 13 -3 13 -17z" />
    <glyph glyph-name="K" unicode="K" 
d="M357 17c-2 -11 -9 -17 -20 -17h-49c-14 0 -14 4 -14 17l64 300c0 14 -1 16 -13 16h-150l-68 -316c-2 -11 -9 -17 -20 -17h-49c-14 0 -14 4 -14 17l135 633c2 11 9 17 20 17h50c13 0 14 -4 14 -17l-38 -174l227 186c3 3 7 5 12 5s8 -2 11 -5l27 -36c2 -2 3 -5 3 -7
c0 -5 -3 -12 -7 -15l-227 -187h108c39 0 68 -28 68 -65c0 -6 -1 -12 -2 -19z" />
    <glyph glyph-name="L" unicode="L" horiz-adv-x="333" 
d="M316 17c-2 -11 -9 -17 -20 -17h-258c-14 0 -14 4 -14 17l135 633c2 11 9 17 20 17h50c13 0 14 -4 14 -17l-121 -567h191c12 0 14 -2 14 -16z" />
    <glyph glyph-name="M" unicode="M" horiz-adv-x="458" 
d="M441 17c-2 -11 -9 -17 -20 -17h-50c-12 0 -14 3 -14 17l118 550c0 14 -2 16 -14 16h-49c-11 0 -18 -5 -20 -16l-118 -550c-2 -11 -9 -17 -20 -17h-50c-11 0 -13 3 -13 17l117 550c0 14 -2 16 -13 16h-50c-11 0 -18 -5 -20 -16l-118 -550c-2 -11 -9 -17 -20 -17h-49
c-14 0 -14 4 -14 17l121 566c14 64 55 84 143 84c35 2 68 -28 68 -65c0 -6 -1 -12 -2 -19c13 64 54 84 142 84c35 2 68 -28 68 -65c0 -6 -1 -12 -2 -19z" />
    <glyph glyph-name="N" unicode="N" 
d="M357 17c-2 -11 -9 -17 -20 -17h-49c-14 0 -14 4 -14 17l118 550c0 14 -2 16 -14 16h-133c-11 0 -18 -5 -20 -16l-118 -550c-2 -11 -9 -17 -20 -17h-49c-14 0 -14 4 -14 17l121 566c10 47 55 84 101 84h167c35 2 68 -28 68 -65c0 -6 -1 -12 -2 -19z" />
    <glyph glyph-name="O" unicode="O" 
d="M392 567c0 14 -2 16 -14 16h-133c-11 0 -18 -5 -20 -16l-99 -467c0 -14 2 -17 12 -17h133c12 0 19 6 21 17zM372 83c-9 -45 -54 -83 -101 -83h-167c-39 0 -67 28 -67 66c0 5 0 11 2 17l106 500c10 47 55 84 101 84h167c35 2 68 -28 68 -65c0 -6 -1 -12 -2 -19z" />
    <glyph glyph-name="P" unicode="P" 
d="M392 567c0 14 -2 16 -14 16h-149l-37 -166h150c12 0 19 5 21 16zM442 417c-9 -47 -54 -84 -100 -84h-167l-68 -316c-2 -11 -9 -17 -20 -17h-49c-14 0 -14 4 -14 17l135 633c2 11 9 17 20 17h234c35 2 68 -28 68 -65c0 -6 -1 -12 -2 -19z" />
    <glyph glyph-name="Q" unicode="Q" 
d="M392 567c0 14 -2 16 -14 16h-133c-11 0 -18 -5 -20 -16l-99 -467c0 -14 2 -17 12 -17h133c12 0 19 6 21 17zM372 83c-9 -45 -54 -83 -101 -83h-42l-5 -24c0 -15 2 -17 13 -17h51c10 0 12 -3 12 -17l-10 -49c-3 -11 -10 -17 -21 -17h-66c-37 -2 -68 27 -68 64l11 60h-42
c-39 0 -67 28 -67 66c0 5 0 11 2 17l106 500c10 47 55 84 101 84h167c35 2 68 -28 68 -65c0 -6 -1 -12 -2 -19z" />
    <glyph glyph-name="R" unicode="R" 
d="M392 567c0 14 -2 16 -14 16h-149l-37 -166h150c12 0 19 5 21 16zM357 17c-2 -11 -9 -17 -20 -17h-49c-14 0 -14 4 -14 17l64 300c0 14 -1 16 -13 16h-150l-68 -316c-2 -11 -9 -17 -20 -17h-49c-14 0 -14 4 -14 17l135 633c2 11 9 17 20 17h234c35 2 68 -28 68 -65
c0 -6 -1 -12 -2 -19l-27 -125c-10 -45 -55 -83 -101 -83c43 -5 67 -28 67 -65c0 -6 -1 -12 -2 -18z" />
    <glyph glyph-name="S" unicode="S" 
d="M372 83c-9 -45 -54 -83 -101 -83h-233c-14 0 -14 4 -14 17l11 50c2 11 9 16 20 16h216c12 0 19 6 21 17l46 217c0 14 -1 16 -13 16h-150c-41 2 -67 29 -67 66c0 6 0 11 1 18l36 166c10 47 55 84 101 84h233c13 0 14 -4 14 -17l-12 -50c-2 -11 -8 -17 -20 -17h-216
c-11 0 -18 -5 -20 -16l-28 -134c0 -14 1 -16 12 -16h150c39 0 68 -28 68 -65c0 -6 -1 -12 -2 -19z" />
    <glyph glyph-name="T" unicode="T" 
d="M481 600c-2 -11 -8 -17 -20 -17h-107l-122 -566c-2 -11 -9 -17 -20 -17h-49c-14 0 -14 4 -14 17l121 566h-108c-12 0 -14 3 -14 17l11 50c2 11 9 17 20 17h300c13 0 14 -4 14 -17z" />
    <glyph glyph-name="U" unicode="U" 
d="M372 83c-9 -45 -54 -83 -101 -83h-167c-39 0 -67 28 -67 66c0 5 0 11 2 17l120 567c2 11 9 17 20 17h50c13 0 14 -4 14 -17l-117 -550c0 -14 2 -17 12 -17h133c12 0 19 6 21 17l117 550c2 11 9 17 20 17h50c13 0 14 -4 14 -17z" />
    <glyph glyph-name="V" unicode="V" 
d="M372 83c-9 -45 -54 -83 -101 -83h-233c-14 0 -14 4 -14 17l135 633c2 11 9 17 20 17h50c13 0 14 -4 14 -17l-121 -567h149c12 0 19 6 21 17l117 550c2 11 9 17 20 17h50c13 0 14 -4 14 -17z" />
    <glyph glyph-name="W" unicode="W" horiz-adv-x="458" 
d="M455 83c-8 -45 -55 -83 -101 -83h-41c-40 0 -67 29 -67 67v16c-9 -45 -54 -83 -100 -83h-42c-39 0 -67 28 -67 66c0 5 0 11 2 17l120 567c2 11 9 17 20 17h50c13 0 14 -4 14 -17l-117 -550c0 -14 2 -17 12 -17h50c12 0 19 6 21 17l117 550c2 11 9 17 20 17h50
c12 0 13 -3 13 -17l-117 -550c0 -14 2 -17 13 -17h50c11 0 18 6 21 17l117 550c2 11 8 17 20 17h50c11 0 13 -3 13 -17z" />
    <glyph glyph-name="X" unicode="X" 
d="M357 17c-2 -11 -9 -17 -20 -17h-49c-14 0 -14 4 -14 17l64 300c0 14 -1 16 -13 16h-133c-11 0 -18 -5 -20 -16l-65 -300c-2 -11 -9 -17 -20 -17h-49c-14 0 -14 4 -14 17l59 275c9 46 56 83 101 83c-33 -3 -68 26 -68 65c0 6 1 12 2 18l41 192c2 11 9 17 20 17h50
c13 0 14 -4 14 -17l-46 -217c0 -14 1 -16 12 -16h133c12 0 19 5 21 16l46 217c2 11 9 17 20 17h50c13 0 14 -4 14 -17l-41 -192c-10 -45 -55 -83 -101 -83c43 -5 67 -28 67 -65c0 -6 -1 -12 -2 -18z" />
    <glyph glyph-name="Y" unicode="Y" 
d="M336 -83c-9 -45 -55 -83 -100 -83h-125c-12 0 -13 2 -13 17l10 50c3 11 9 16 20 16h109c11 0 18 6 20 17l14 66h-167c-39 0 -67 28 -67 66c0 5 0 11 2 17l120 567c2 11 9 17 20 17h50c13 0 14 -4 14 -17l-117 -550c0 -14 2 -17 12 -17h133c12 0 19 6 21 17l117 550
c2 11 9 17 20 17h50c13 0 14 -4 14 -17z" />
    <glyph glyph-name="Z" unicode="Z" 
d="M357 17c-2 -11 -9 -17 -20 -17h-233c-39 0 -67 28 -67 66c0 5 0 11 2 17l53 250c10 47 54 84 100 84h150c12 0 19 5 21 16l29 134c0 14 -2 16 -14 16h-216c-12 0 -14 3 -14 17l11 50c2 11 9 17 20 17h234c35 2 68 -28 68 -65c0 -6 -1 -12 -2 -19l-37 -166
c-9 -47 -54 -84 -100 -84h-150c-11 0 -18 -5 -20 -16l-46 -217c0 -14 2 -17 12 -17h217c12 0 13 -2 13 -16z" />
    <glyph glyph-name="bracketleft" unicode="[" horiz-adv-x="208" 
d="M173 -66c-2 -11 -9 -17 -20 -17h-133c-12 0 -13 3 -13 17l170 799c2 11 9 17 20 17h133c12 0 13 -3 13 -17l-10 -50c-3 -11 -9 -16 -20 -16h-67l-142 -667h67c11 0 13 -2 13 -16z" />
    <glyph glyph-name="backslash" unicode="\" horiz-adv-x="395" 
d="M368 -33c-4 -15 -47 -34 -71 -34c-12 0 -12 1 -21 62l-77 497c-19 130 -29 199 -29 207c0 18 51 35 70 35c11 0 11 0 22 -62z" />
    <glyph glyph-name="bracketright" unicode="]" horiz-adv-x="208" 
d="M173 -66c-2 -11 -9 -17 -20 -17h-133c-12 0 -13 3 -13 17l11 50c2 11 9 16 20 16h66l142 667h-67c-11 0 -13 2 -13 16l11 50c2 11 9 17 20 17h133c12 0 13 -3 13 -17z" />
    <glyph glyph-name="asciicircum" unicode="^" horiz-adv-x="407" 
d="M376 250c-11 0 -11 0 -22 62l-36 230l-134 -230c-18 -40 -34 -62 -46 -62c-26 1 -57 16 -57 31c0 4 0 6 119 212l91 157c6 11 15 17 26 17h57c11 0 17 -6 19 -17l53 -365c0 -16 -44 -35 -70 -35z" />
    <glyph glyph-name="underscore" unicode="_" horiz-adv-x="417" 
d="M0 0l9 42h417l-9 -42h-417z" />
    <glyph glyph-name="grave" unicode="`" horiz-adv-x="192" 
d="M255 708l-57 125h84l40 -125h-67z" />
    <glyph glyph-name="a" unicode="a" 
d="M310 183h-150c-11 0 -18 -5 -20 -16l-14 -67c0 -14 2 -17 12 -17h133c12 0 19 6 21 17zM372 83c-9 -45 -54 -83 -101 -83h-167c-39 0 -67 28 -67 66c0 5 0 11 2 17l21 100c8 45 55 84 101 84h167l10 50c0 14 -1 16 -13 16h-108c-13 0 -14 4 -14 17l11 50c2 11 9 17 20 17
h125c39 0 68 -28 68 -65c0 -6 -1 -12 -2 -19z" />
    <glyph glyph-name="b" unicode="b" 
d="M338 317c0 14 -1 16 -13 16h-150l-49 -233c0 -14 2 -17 12 -17h133c12 0 19 6 21 17zM372 83c-9 -45 -54 -83 -101 -83h-167c-39 0 -67 28 -67 66c0 5 0 11 2 17l120 567c2 11 9 17 20 17h50c13 0 14 -4 14 -17l-51 -233h167c39 0 68 -28 68 -65c0 -6 -1 -12 -2 -19z" />
    <glyph glyph-name="c" unicode="c" horiz-adv-x="333" 
d="M316 17c-2 -11 -9 -17 -20 -17h-192c-39 0 -67 28 -67 66c0 5 0 11 2 17l53 250c10 47 54 84 100 84h192c12 0 13 -3 13 -17l-10 -50c-3 -11 -9 -17 -20 -17h-175c-11 0 -18 -5 -20 -16l-46 -217c0 -14 2 -17 12 -17h175c12 0 14 -2 14 -16z" />
    <glyph glyph-name="d" unicode="d" 
d="M342 333h-150c-11 0 -18 -5 -20 -16l-46 -217c0 -14 2 -17 12 -17h133c12 0 19 6 21 17zM372 83c-9 -45 -54 -83 -101 -83h-167c-39 0 -67 28 -67 66c0 5 0 11 2 17l53 250c10 47 54 84 100 84h167l50 233c2 11 9 17 20 17h50c13 0 14 -4 14 -17z" />
    <glyph glyph-name="e" unicode="e" 
d="M338 317c0 14 -1 16 -13 16h-133c-11 0 -18 -5 -20 -16l-18 -84h150c11 0 18 6 20 17zM404 233c-10 -45 -56 -83 -101 -83h-167l-10 -50c0 -14 2 -17 12 -17h109c11 0 13 -2 13 -16l-11 -50c-2 -11 -9 -17 -20 -17h-125c-39 0 -67 28 -67 66c0 5 0 11 2 17l53 250
c10 47 54 84 100 84h167c39 0 68 -28 68 -65z" />
    <glyph glyph-name="f" unicode="f" horiz-adv-x="292" 
d="M345 350c-2 -11 -9 -17 -20 -17h-150l-68 -316c-2 -11 -9 -17 -20 -17h-49c-14 0 -14 4 -14 17l121 566c10 47 55 84 101 84h150c12 0 13 -3 13 -17l-11 -50c-2 -11 -9 -17 -20 -17h-133c-11 0 -18 -5 -20 -16l-33 -150h150c12 0 14 -2 14 -17z" />
    <glyph glyph-name="g" unicode="g" 
d="M338 317c0 14 -1 16 -13 16h-133c-11 0 -18 -5 -20 -16l-46 -217c0 -14 2 -17 12 -17h151zM336 -83c-9 -45 -55 -83 -100 -83h-125c-12 0 -13 2 -13 17l10 50c3 11 9 16 20 16h109c11 0 18 6 20 17l14 66h-167c-39 0 -67 28 -67 66c0 5 0 11 2 17l53 250
c10 47 54 84 100 84h167c39 0 68 -28 68 -65c0 -6 -1 -12 -2 -19z" />
    <glyph glyph-name="h" unicode="h" 
d="M357 17c-2 -11 -9 -17 -20 -17h-49c-14 0 -14 4 -14 17l64 300c0 14 -1 16 -13 16h-150l-68 -316c-2 -11 -9 -17 -20 -17h-49c-14 0 -14 4 -14 17l135 633c2 11 9 17 20 17h50c13 0 14 -4 14 -17l-51 -233h167c39 0 68 -28 68 -65c0 -6 -1 -12 -2 -19z" />
    <glyph glyph-name="i" unicode="i" horiz-adv-x="125" 
d="M107 17c-2 -11 -9 -17 -20 -17h-49c-14 0 -14 4 -14 17l82 383c2 11 9 17 20 17h50c11 0 13 -3 13 -17zM214 517c-2 -11 -9 -17 -20 -17h-50c-11 0 -13 3 -13 17l11 50c2 11 9 16 20 16h49c12 0 14 -1 14 -16z" />
    <glyph glyph-name="j" unicode="j" horiz-adv-x="125" 
d="M86 -83c-9 -45 -55 -83 -100 -83h-150c-11 0 -13 2 -13 17l11 50c2 11 9 16 20 16h133c11 0 18 6 20 17l99 466c2 11 9 17 20 17h50c11 0 13 -3 13 -17zM214 517c-2 -11 -9 -17 -20 -17h-50c-11 0 -13 3 -13 17l11 50c2 11 9 16 20 16h49c12 0 14 -1 14 -16z" />
    <glyph glyph-name="k" unicode="k" 
d="M357 17c-2 -11 -9 -17 -20 -17h-49c-14 0 -14 4 -14 17l29 133c0 14 -2 17 -13 17h-150l-33 -150c-2 -11 -9 -17 -20 -17h-49c-14 0 -14 4 -14 17l135 633c2 11 9 17 20 17h50c13 0 14 -4 14 -17l-73 -341l125 103c3 3 7 5 13 5c4 0 7 -2 10 -5l28 -36c2 -2 3 -5 3 -7
c0 -5 -4 -12 -8 -15l-124 -104h107c39 0 67 -28 67 -67v-16z" />
    <glyph glyph-name="l" unicode="l" horiz-adv-x="125" 
d="M107 17c-2 -11 -9 -17 -20 -17h-49c-14 0 -14 4 -14 17l135 633c2 11 9 17 20 17h50c13 0 14 -4 14 -17z" />
    <glyph glyph-name="m" unicode="m" horiz-adv-x="458" 
d="M441 17c-2 -11 -9 -17 -20 -17h-50c-12 0 -14 3 -14 17l65 300c0 13 -1 16 -14 16h-50c-11 0 -17 -5 -20 -16l-64 -300c-2 -11 -9 -17 -20 -17h-50c-11 0 -13 3 -13 17l64 300c0 14 -2 16 -13 16h-50c-11 0 -18 -5 -20 -16l-65 -300c-2 -11 -9 -17 -20 -17h-49
c-14 0 -14 4 -14 17l68 316c13 64 55 84 142 84c39 0 68 -28 68 -65c0 -6 -1 -12 -2 -19c15 65 57 84 142 84c40 -1 68 -28 68 -65c0 -6 0 -12 -2 -19z" />
    <glyph glyph-name="n" unicode="n" 
d="M357 17c-2 -11 -9 -17 -20 -17h-49c-14 0 -14 4 -14 17l64 300c0 14 -1 16 -13 16h-133c-11 0 -18 -5 -20 -16l-65 -300c-2 -11 -9 -17 -20 -17h-49c-14 0 -14 4 -14 17l68 316c10 47 54 84 100 84h167c39 0 68 -28 68 -65c0 -6 -1 -12 -2 -19z" />
    <glyph glyph-name="o" unicode="o" 
d="M338 317c0 14 -1 16 -13 16h-133c-11 0 -18 -5 -20 -16l-46 -217c0 -14 2 -17 12 -17h133c12 0 19 6 21 17zM372 83c-9 -45 -54 -83 -101 -83h-167c-39 0 -67 28 -67 66c0 5 0 11 2 17l53 250c10 47 54 84 100 84h167c39 0 68 -28 68 -65c0 -6 -1 -12 -2 -19z" />
    <glyph glyph-name="p" unicode="p" 
d="M338 317c0 14 -1 16 -13 16h-133c-11 0 -18 -5 -20 -16l-50 -234h149c12 0 19 6 21 17zM372 83c-9 -45 -54 -83 -101 -83h-167l-32 -149c-2 -11 -8 -17 -19 -17h-51c-11 0 -13 2 -13 17l103 482c10 47 54 84 100 84h167c39 0 68 -28 68 -65c0 -6 -1 -12 -2 -19z" />
    <glyph glyph-name="q" unicode="q" 
d="M338 317c0 14 -1 16 -13 16h-133c-11 0 -18 -5 -20 -16l-46 -217c0 -14 2 -17 12 -17h151zM322 -149c-2 -11 -8 -17 -19 -17h-51c-11 0 -13 2 -13 17l32 149h-167c-39 0 -67 28 -67 66c0 5 0 11 2 17l53 250c10 47 54 84 100 84h167c39 0 68 -28 68 -65
c0 -6 -1 -12 -2 -19z" />
    <glyph glyph-name="r" unicode="r" horiz-adv-x="333" 
d="M369 267c-2 -11 -9 -17 -20 -17h-50c-8 0 -13 5 -13 15c9 41 10 49 10 53c0 10 -4 15 -13 15h-91c-11 0 -18 -5 -20 -16l-65 -300c-2 -11 -9 -17 -20 -17h-49c-14 0 -14 4 -14 17l68 316c10 47 54 84 100 84h125c40 -1 68 -28 68 -65z" />
    <glyph glyph-name="s" unicode="s" 
d="M372 83c-9 -45 -54 -83 -101 -83h-233c-14 0 -14 4 -14 17l11 50c2 11 9 16 20 16h216c12 0 19 6 21 17l11 50c0 14 -2 17 -13 17h-150c-35 -4 -68 27 -68 65c0 5 1 12 2 18l18 83c10 47 54 84 100 84h234c11 0 13 -3 13 -17l-11 -50c-2 -11 -9 -17 -20 -17h-216
c-11 0 -18 -5 -20 -16l-11 -50c0 -13 0 -17 13 -17h150c39 0 67 -28 67 -67v-16z" />
    <glyph glyph-name="t" unicode="t" horiz-adv-x="292" 
d="M274 17c-2 -11 -9 -17 -20 -17h-150c-39 0 -67 28 -67 66c0 5 0 11 2 17l120 567c2 11 9 17 20 17h50c13 0 14 -4 14 -17l-51 -233h150c12 0 14 -2 14 -17l-11 -50c-2 -11 -9 -17 -20 -17h-150l-49 -233c0 -14 2 -17 12 -17h133c12 0 14 -1 14 -16z" />
    <glyph glyph-name="u" unicode="u" 
d="M372 83c-9 -45 -54 -83 -101 -83h-167c-39 0 -67 28 -67 66c0 5 0 11 2 17l67 317c2 11 9 17 20 17h50c11 0 13 -3 13 -17l-63 -300c0 -14 2 -17 12 -17h133c12 0 19 6 21 17l64 300c2 11 9 17 20 17h50c11 0 13 -3 13 -17z" />
    <glyph glyph-name="v" unicode="v" 
d="M372 83c-9 -45 -54 -83 -101 -83h-233c-14 0 -14 4 -14 17l82 383c2 11 9 17 20 17h50c11 0 13 -3 13 -17l-67 -317h149c12 0 19 6 21 17l64 300c2 11 9 17 20 17h50c11 0 13 -3 13 -17z" />
    <glyph glyph-name="w" unicode="w" horiz-adv-x="458" 
d="M455 83c-8 -45 -55 -83 -101 -83h-41c-40 0 -67 29 -67 67v16c-9 -45 -54 -83 -100 -83h-42c-39 0 -67 28 -67 66c0 5 0 11 2 17l67 317c2 11 9 17 20 17h50c11 0 13 -3 13 -17l-63 -300c0 -14 2 -17 12 -17h50c12 0 19 6 21 17l63 300c3 11 9 17 20 17h50
c12 0 14 -2 14 -17l-64 -300c0 -14 2 -17 13 -17h50c11 0 18 6 21 17l63 300c2 11 9 17 20 17h50c12 0 13 -3 13 -17z" />
    <glyph glyph-name="x" unicode="x" 
d="M357 17c-2 -11 -9 -17 -20 -17h-49c-14 0 -14 4 -14 17l29 133c0 14 -2 17 -13 17h-133c-11 0 -18 -6 -21 -17l-29 -133c-2 -11 -9 -17 -20 -17h-49c-14 0 -14 4 -14 17l23 108c11 46 56 83 101 83c-38 0 -67 28 -67 66c0 6 0 11 2 18l23 108c2 11 9 17 20 17h50
c11 0 13 -3 13 -17l-28 -133c0 -13 0 -17 13 -17h134c11 0 17 6 20 17l28 133c2 11 9 17 20 17h50c11 0 13 -3 13 -17l-23 -108c-9 -46 -55 -84 -101 -84c39 0 68 -28 68 -65c0 -6 -1 -12 -2 -18z" />
    <glyph glyph-name="y" unicode="y" 
d="M336 -83c-9 -45 -55 -83 -100 -83h-125c-12 0 -13 2 -13 17l10 50c3 11 9 16 20 16h109c11 0 18 6 20 17l14 66h-167c-39 0 -67 28 -67 66c0 5 0 11 2 17l67 317c2 11 9 17 20 17h50c11 0 13 -3 13 -17l-63 -300c0 -14 2 -17 12 -17h133c12 0 19 6 21 17l64 300
c2 11 9 17 20 17h50c11 0 13 -3 13 -17z" />
    <glyph glyph-name="z" unicode="z" 
d="M357 17c-2 -11 -9 -17 -20 -17h-233c-39 0 -67 28 -67 66c0 5 0 11 2 17l18 84c8 45 54 83 101 83h150c11 0 17 6 20 17l10 50c0 14 -1 16 -13 16h-217c-11 0 -13 3 -13 17l11 50c2 11 9 17 20 17h233c39 0 68 -28 68 -65l-19 -102c-12 -47 -56 -83 -101 -83h-150
c-11 0 -18 -6 -21 -17l-10 -50c0 -14 2 -17 12 -17h217c12 0 13 -2 13 -16z" />
    <glyph glyph-name="braceleft" unicode="{" horiz-adv-x="292" 
d="M257 -66c-2 -11 -9 -17 -20 -17h-67c-40 2 -68 28 -68 65c0 6 1 12 2 18l59 275c0 14 -2 17 -14 17h-50c-11 0 -13 2 -13 16l11 50c4 16 11 17 45 17c35 0 42 1 46 17l58 275c10 46 55 83 101 83h67c11 0 13 -3 13 -17l-11 -50c-3 -15 -10 -16 -60 -16
c-18 0 -28 -5 -30 -17l-50 -233c-9 -46 -55 -84 -101 -84c37 2 67 -28 67 -66c0 -5 0 -11 -1 -17l-50 -233c0 -14 2 -17 13 -17h50c12 0 14 -2 14 -16z" />
    <glyph glyph-name="bar" unicode="|" horiz-adv-x="125" 
d="M90 -66c-2 -11 -9 -17 -20 -17h-50c-12 0 -13 3 -13 17l170 799c2 11 9 17 20 17h50c11 0 13 -3 13 -17z" />
    <glyph glyph-name="braceright" unicode="}" horiz-adv-x="292" 
d="M336 308c-3 -15 -9 -16 -59 -16c-18 0 -28 -5 -31 -17l-58 -275c-10 -45 -56 -83 -102 -83h-66c-12 0 -13 3 -13 17l11 50c3 16 13 16 45 16c31 0 41 1 44 17l51 233c8 46 54 83 100 83c-38 0 -66 29 -66 67v17l51 233c0 13 -5 17 -24 17c-53 0 -53 1 -53 16l11 50
c2 11 9 17 20 17h66c37 1 68 -29 68 -65c0 -6 -1 -12 -2 -18l-58 -275c0 -14 2 -17 13 -17h50c11 0 13 -2 13 -17z" />
    <glyph glyph-name="asciitilde" unicode="~" horiz-adv-x="325" 
d="M352 225c-3 -15 -87 -58 -112 -58c-12 0 -24 7 -37 21c-13 13 -26 20 -38 20c-20 0 -46 -11 -96 -42c-7 0 -9 1 -9 17l11 50c3 16 89 59 112 59c12 0 24 -7 37 -21s26 -21 37 -21c20 0 40 9 97 42c7 0 8 0 8 -17z" />
    <glyph glyph-name="Adieresis" unicode="&#xc4;" 
d="M392 567c0 14 -2 16 -14 16h-133c-11 0 -18 -5 -20 -16l-33 -150h167zM357 17c-2 -11 -9 -17 -20 -17h-49c-14 0 -14 4 -14 17l68 316h-167l-68 -316c-2 -11 -9 -17 -20 -17h-49c-14 0 -14 4 -14 17l121 566c10 47 55 84 101 84h167c35 2 68 -28 68 -65
c0 -6 -1 -12 -2 -19zM247 708l14 67h67l-15 -67h-66zM364 708l14 67h66l-14 -67h-66z" />
    <glyph glyph-name="Aring" unicode="&#xc5;" 
d="M376 792h-41l-9 -42h41zM408 746c-4 -19 -25 -38 -45 -38h-50c-26 0 -30 18 -30 38l11 50c4 19 26 37 46 37h50c23 0 29 -13 29 -37zM392 567c0 14 -2 16 -14 16h-133c-11 0 -18 -5 -20 -16l-33 -150h167zM357 17c-2 -11 -9 -17 -20 -17h-49c-14 0 -14 4 -14 17l68 316
h-167l-68 -316c-2 -11 -9 -17 -20 -17h-49c-14 0 -14 4 -14 17l121 566c10 47 55 84 101 84h167c35 2 68 -28 68 -65c0 -6 -1 -12 -2 -19z" />
    <glyph glyph-name="Eacute" unicode="&#xc9;" 
d="M357 17c-2 -11 -9 -17 -20 -17h-299c-14 0 -14 4 -14 17l135 633c2 11 9 17 20 17h300c13 0 14 -4 14 -17l-12 -50c-2 -11 -8 -17 -20 -17h-232l-37 -166h150c12 0 14 -2 14 -17l-11 -50c-2 -11 -9 -17 -20 -17h-150l-53 -250h233c12 0 13 -2 13 -16zM330 708h-66l93 125
h83z" />
    <glyph glyph-name="Ntilde" unicode="&#xd1;" 
d="M357 17c-2 -11 -9 -17 -20 -17h-49c-14 0 -14 4 -14 17l118 550c0 14 -2 16 -14 16h-133c-11 0 -18 -5 -20 -16l-118 -550c-2 -11 -9 -17 -20 -17h-49c-14 0 -14 4 -14 17l121 566c10 47 55 84 101 84h167c35 2 68 -28 68 -65c0 -6 -1 -12 -2 -19zM472 750
c-37 -28 -67 -42 -92 -42c-12 0 -25 7 -38 21s-26 21 -37 21c-25 0 -55 -14 -92 -42l15 67c36 28 67 42 91 42c12 0 24 -7 37 -21s26 -21 38 -21c24 0 55 14 92 42z" />
    <glyph glyph-name="Odieresis" unicode="&#xd6;" 
d="M392 567c0 14 -2 16 -14 16h-133c-11 0 -18 -5 -20 -16l-99 -467c0 -14 2 -17 12 -17h133c12 0 19 6 21 17zM372 83c-9 -45 -54 -83 -101 -83h-167c-39 0 -67 28 -67 66c0 5 0 11 2 17l106 500c10 47 55 84 101 84h167c35 2 68 -28 68 -65c0 -6 -1 -12 -2 -19zM247 708
l14 67h67l-15 -67h-66zM364 708l14 67h66l-14 -67h-66z" />
    <glyph glyph-name="Udieresis" unicode="&#xdc;" 
d="M247 708l14 67h67l-15 -67h-66zM364 708l14 67h66l-14 -67h-66zM372 83c-9 -45 -54 -83 -101 -83h-167c-39 0 -67 28 -67 66c0 5 0 11 2 17l120 567c2 11 9 17 20 17h50c13 0 14 -4 14 -17l-117 -550c0 -14 2 -17 12 -17h133c12 0 19 6 21 17l117 550c2 11 9 17 20 17h50
c13 0 14 -4 14 -17z" />
    <glyph glyph-name="aacute" unicode="&#xe1;" 
d="M310 183h-150c-11 0 -18 -5 -20 -16l-14 -67c0 -14 2 -17 12 -17h133c12 0 19 6 21 17zM372 83c-9 -45 -54 -83 -101 -83h-167c-39 0 -67 28 -67 66c0 5 0 11 2 17l21 100c8 45 55 84 101 84h167l10 50c0 14 -1 16 -13 16h-108c-13 0 -14 4 -14 17l11 50c2 11 9 17 20 17
h125c39 0 68 -28 68 -65c0 -6 -1 -12 -2 -19zM277 460h-67l94 125h83z" />
    <glyph glyph-name="agrave" unicode="&#xe0;" 
d="M293 459l-56 125h83l40 -125h-67zM310 183h-150c-11 0 -18 -5 -20 -16l-14 -67c0 -14 2 -17 12 -17h133c12 0 19 6 21 17zM372 83c-9 -45 -54 -83 -101 -83h-167c-39 0 -67 28 -67 66c0 5 0 11 2 17l21 100c8 45 55 84 101 84h167l10 50c0 14 -1 16 -13 16h-108
c-13 0 -14 4 -14 17l11 50c2 11 9 17 20 17h125c39 0 68 -28 68 -65c0 -6 -1 -12 -2 -19z" />
    <glyph glyph-name="acircumflex" unicode="&#xe2;" 
d="M353 459l-51 77l-83 -77h-66l118 125h83l65 -125h-66zM310 183h-150c-11 0 -18 -5 -20 -16l-14 -67c0 -14 2 -17 12 -17h133c12 0 19 6 21 17zM372 83c-9 -45 -54 -83 -101 -83h-167c-39 0 -67 28 -67 66c0 5 0 11 2 17l21 100c8 45 55 84 101 84h167l10 50
c0 14 -1 16 -13 16h-108c-13 0 -14 4 -14 17l11 50c2 11 9 17 20 17h125c39 0 68 -28 68 -65c0 -6 -1 -12 -2 -19z" />
    <glyph glyph-name="adieresis" unicode="&#xe4;" 
d="M193 459l15 67h66l-14 -67h-67zM310 459l14 67h67l-15 -67h-66zM310 183h-150c-11 0 -18 -5 -20 -16l-14 -67c0 -14 2 -17 12 -17h133c12 0 19 6 21 17zM372 83c-9 -45 -54 -83 -101 -83h-167c-39 0 -67 28 -67 66c0 5 0 11 2 17l21 100c8 45 55 84 101 84h167l10 50
c0 14 -1 16 -13 16h-108c-13 0 -14 4 -14 17l11 50c2 11 9 17 20 17h125c39 0 68 -28 68 -65c0 -6 -1 -12 -2 -19z" />
    <glyph glyph-name="atilde" unicode="&#xe3;" 
d="M310 183h-150c-11 0 -18 -5 -20 -16l-14 -67c0 -14 2 -17 12 -17h133c12 0 19 6 21 17zM372 83c-9 -45 -54 -83 -101 -83h-167c-39 0 -67 28 -67 66c0 5 0 11 2 17l21 100c8 45 55 84 101 84h167l10 50c0 14 -1 16 -13 16h-108c-13 0 -14 4 -14 17l11 50c2 11 9 17 20 17
h125c39 0 68 -28 68 -65c0 -6 -1 -12 -2 -19zM420 501c-37 -27 -67 -41 -92 -41c-12 0 -25 7 -38 20c-13 14 -25 21 -37 21c-24 0 -55 -13 -91 -41l14 66c37 28 67 42 91 42c12 0 24 -7 37 -21s26 -21 38 -21c25 0 55 14 92 42z" />
    <glyph glyph-name="aring" unicode="&#xe5;" 
d="M323 542h-41l-10 -41h42zM355 497c-4 -19 -25 -38 -45 -38h-50c-26 0 -30 18 -30 38l11 50c4 19 26 37 46 37h49c24 0 30 -13 30 -37zM310 183h-150c-11 0 -18 -5 -20 -16l-14 -67c0 -14 2 -17 12 -17h133c12 0 19 6 21 17zM372 83c-9 -45 -54 -83 -101 -83h-167
c-39 0 -67 28 -67 66c0 5 0 11 2 17l21 100c8 45 55 84 101 84h167l10 50c0 14 -1 16 -13 16h-108c-13 0 -14 4 -14 17l11 50c2 11 9 17 20 17h125c39 0 68 -28 68 -65c0 -6 -1 -12 -2 -19z" />
    <glyph glyph-name="eacute" unicode="&#xe9;" 
d="M338 317c0 14 -1 16 -13 16h-133c-11 0 -18 -5 -20 -16l-18 -84h150c11 0 18 6 20 17zM404 233c-10 -45 -56 -83 -101 -83h-167l-10 -50c0 -14 2 -17 12 -17h109c11 0 13 -2 13 -16l-11 -50c-2 -11 -9 -17 -20 -17h-125c-39 0 -67 28 -67 66c0 5 0 11 2 17l53 250
c10 47 54 84 100 84h167c39 0 68 -28 68 -65zM277 460h-67l94 125h83z" />
    <glyph glyph-name="egrave" unicode="&#xe8;" 
d="M293 459l-56 125h83l40 -125h-67zM338 317c0 14 -1 16 -13 16h-133c-11 0 -18 -5 -20 -16l-18 -84h150c11 0 18 6 20 17zM404 233c-10 -45 -56 -83 -101 -83h-167l-10 -50c0 -14 2 -17 12 -17h109c11 0 13 -2 13 -16l-11 -50c-2 -11 -9 -17 -20 -17h-125
c-39 0 -67 28 -67 66c0 5 0 11 2 17l53 250c10 47 54 84 100 84h167c39 0 68 -28 68 -65z" />
    <glyph glyph-name="ecircumflex" unicode="&#xea;" 
d="M353 459l-51 77l-83 -77h-66l118 125h83l65 -125h-66zM338 317c0 14 -1 16 -13 16h-133c-11 0 -18 -5 -20 -16l-18 -84h150c11 0 18 6 20 17zM404 233c-10 -45 -56 -83 -101 -83h-167l-10 -50c0 -14 2 -17 12 -17h109c11 0 13 -2 13 -16l-11 -50c-2 -11 -9 -17 -20 -17
h-125c-39 0 -67 28 -67 66c0 5 0 11 2 17l53 250c10 47 54 84 100 84h167c39 0 68 -28 68 -65z" />
    <glyph glyph-name="edieresis" unicode="&#xeb;" 
d="M193 459l15 67h66l-14 -67h-67zM310 459l14 67h67l-15 -67h-66zM338 317c0 14 -1 16 -13 16h-133c-11 0 -18 -5 -20 -16l-18 -84h150c11 0 18 6 20 17zM404 233c-10 -45 -56 -83 -101 -83h-167l-10 -50c0 -14 2 -17 12 -17h109c11 0 13 -2 13 -16l-11 -50
c-2 -11 -9 -17 -20 -17h-125c-39 0 -67 28 -67 66c0 5 0 11 2 17l53 250c10 47 54 84 100 84h167c39 0 68 -28 68 -65z" />
    <glyph glyph-name="iacute" unicode="&#xed;" horiz-adv-x="125" 
d="M153 459h-67l94 125h83zM107 17c-2 -11 -9 -17 -20 -17h-49c-14 0 -14 4 -14 17l82 383c2 11 9 17 20 17h50c11 0 13 -3 13 -17z" />
    <glyph glyph-name="igrave" unicode="&#xec;" horiz-adv-x="125" 
d="M169 459l-56 125h83l40 -125h-67zM107 17c-2 -11 -9 -17 -20 -17h-49c-14 0 -14 4 -14 17l82 383c2 11 9 17 20 17h50c11 0 13 -3 13 -17z" />
    <glyph glyph-name="icircumflex" unicode="&#xee;" horiz-adv-x="125" 
d="M228 459l-51 77l-83 -77h-66l118 125h83l65 -125h-66zM107 17c-2 -11 -9 -17 -20 -17h-49c-14 0 -14 4 -14 17l82 383c2 11 9 17 20 17h50c11 0 13 -3 13 -17z" />
    <glyph glyph-name="idieresis" unicode="&#xef;" horiz-adv-x="125" 
d="M69 459l14 67h67l-14 -67h-67zM186 459l14 67h67l-15 -67h-66zM107 17c-2 -11 -9 -17 -20 -17h-49c-14 0 -14 4 -14 17l82 383c2 11 9 17 20 17h50c11 0 13 -3 13 -17z" />
    <glyph glyph-name="ntilde" unicode="&#xf1;" 
d="M357 17c-2 -11 -9 -17 -20 -17h-49c-14 0 -14 4 -14 17l64 300c0 14 -1 16 -13 16h-133c-11 0 -18 -5 -20 -16l-65 -300c-2 -11 -9 -17 -20 -17h-49c-14 0 -14 4 -14 17l68 316c10 47 54 84 100 84h167c39 0 68 -28 68 -65c0 -6 -1 -12 -2 -19zM420 501
c-37 -27 -67 -41 -92 -41c-12 0 -25 7 -38 20c-13 14 -25 21 -37 21c-24 0 -55 -13 -91 -41l14 66c37 28 67 42 91 42c12 0 24 -7 37 -21s26 -21 38 -21c25 0 55 14 92 42z" />
    <glyph glyph-name="oacute" unicode="&#xf3;" 
d="M338 317c0 14 -1 16 -13 16h-133c-11 0 -18 -5 -20 -16l-46 -217c0 -14 2 -17 12 -17h133c12 0 19 6 21 17zM372 83c-9 -45 -54 -83 -101 -83h-167c-39 0 -67 28 -67 66c0 5 0 11 2 17l53 250c10 47 54 84 100 84h167c39 0 68 -28 68 -65c0 -6 -1 -12 -2 -19zM277 460
h-67l94 125h83z" />
    <glyph glyph-name="ograve" unicode="&#xf2;" 
d="M293 459l-56 125h83l40 -125h-67zM338 317c0 14 -1 16 -13 16h-133c-11 0 -18 -5 -20 -16l-46 -217c0 -14 2 -17 12 -17h133c12 0 19 6 21 17zM372 83c-9 -45 -54 -83 -101 -83h-167c-39 0 -67 28 -67 66c0 5 0 11 2 17l53 250c10 47 54 84 100 84h167
c39 0 68 -28 68 -65c0 -6 -1 -12 -2 -19z" />
    <glyph glyph-name="ocircumflex" unicode="&#xf4;" 
d="M353 459l-51 77l-83 -77h-66l118 125h83l65 -125h-66zM338 317c0 14 -1 16 -13 16h-133c-11 0 -18 -5 -20 -16l-46 -217c0 -14 2 -17 12 -17h133c12 0 19 6 21 17zM372 83c-9 -45 -54 -83 -101 -83h-167c-39 0 -67 28 -67 66c0 5 0 11 2 17l53 250c10 47 54 84 100 84
h167c39 0 68 -28 68 -65c0 -6 -1 -12 -2 -19z" />
    <glyph glyph-name="odieresis" unicode="&#xf6;" 
d="M193 459l15 67h66l-14 -67h-67zM310 459l14 67h67l-15 -67h-66zM338 317c0 14 -1 16 -13 16h-133c-11 0 -18 -5 -20 -16l-46 -217c0 -14 2 -17 12 -17h133c12 0 19 6 21 17zM372 83c-9 -45 -54 -83 -101 -83h-167c-39 0 -67 28 -67 66c0 5 0 11 2 17l53 250
c10 47 54 84 100 84h167c39 0 68 -28 68 -65c0 -6 -1 -12 -2 -19z" />
    <glyph glyph-name="otilde" unicode="&#xf5;" 
d="M338 317c0 14 -1 16 -13 16h-133c-11 0 -18 -5 -20 -16l-46 -217c0 -14 2 -17 12 -17h133c12 0 19 6 21 17zM372 83c-9 -45 -54 -83 -101 -83h-167c-39 0 -67 28 -67 66c0 5 0 11 2 17l53 250c10 47 54 84 100 84h167c39 0 68 -28 68 -65c0 -6 -1 -12 -2 -19zM420 501
c-37 -27 -67 -41 -92 -41c-12 0 -25 7 -38 20c-13 14 -25 21 -37 21c-24 0 -55 -13 -91 -41l14 66c37 28 67 42 91 42c12 0 24 -7 37 -21s26 -21 38 -21c25 0 55 14 92 42z" />
    <glyph glyph-name="uacute" unicode="&#xfa;" 
d="M372 83c-9 -45 -54 -83 -101 -83h-167c-39 0 -67 28 -67 66c0 5 0 11 2 17l67 317c2 11 9 17 20 17h50c11 0 13 -3 13 -17l-63 -300c0 -14 2 -17 12 -17h133c12 0 19 6 21 17l64 300c2 11 9 17 20 17h50c11 0 13 -3 13 -17zM277 460h-67l94 125h83z" />
    <glyph glyph-name="ugrave" unicode="&#xf9;" 
d="M293 459l-56 125h83l40 -125h-67zM372 83c-9 -45 -54 -83 -101 -83h-167c-39 0 -67 28 -67 66c0 5 0 11 2 17l67 317c2 11 9 17 20 17h50c11 0 13 -3 13 -17l-63 -300c0 -14 2 -17 12 -17h133c12 0 19 6 21 17l64 300c2 11 9 17 20 17h50c11 0 13 -3 13 -17z" />
    <glyph glyph-name="ucircumflex" unicode="&#xfb;" 
d="M353 459l-51 77l-83 -77h-66l118 125h83l65 -125h-66zM372 83c-9 -45 -54 -83 -101 -83h-167c-39 0 -67 28 -67 66c0 5 0 11 2 17l67 317c2 11 9 17 20 17h50c11 0 13 -3 13 -17l-63 -300c0 -14 2 -17 12 -17h133c12 0 19 6 21 17l64 300c2 11 9 17 20 17h50
c11 0 13 -3 13 -17z" />
    <glyph glyph-name="udieresis" unicode="&#xfc;" 
d="M193 459l15 67h66l-14 -67h-67zM310 459l14 67h67l-15 -67h-66zM372 83c-9 -45 -54 -83 -101 -83h-167c-39 0 -67 28 -67 66c0 5 0 11 2 17l67 317c2 11 9 17 20 17h50c11 0 13 -3 13 -17l-63 -300c0 -14 2 -17 12 -17h133c12 0 19 6 21 17l64 300c2 11 9 17 20 17h50
c11 0 13 -3 13 -17z" />
    <glyph glyph-name="dagger" unicode="&#x2020;" horiz-adv-x="292" 
d="M363 433c-2 -11 -9 -16 -21 -16h-66l-120 -566c-3 -11 -10 -17 -20 -17h-50c-13 0 -14 4 -14 17l120 566h-66c-11 0 -13 2 -13 16l11 50c2 11 9 17 20 17h67l32 150c2 11 8 17 20 17h50c11 0 13 -3 13 -17l-32 -150h67c11 0 13 -3 13 -17z" />
    <glyph glyph-name="degree" unicode="&#xb0;" horiz-adv-x="167" 
d="M237 625h-42l-8 -42h42zM269 579c-4 -19 -26 -37 -46 -37h-50c-23 0 -29 13 -29 37l10 50c4 21 29 38 46 38h50c22 0 29 -15 29 -38z" />
    <glyph glyph-name="cent" unicode="&#xa2;" horiz-adv-x="333" 
d="M369 267c-2 -11 -9 -17 -20 -17h-66l-14 -67c-3 -11 -9 -16 -20 -16h-51c-11 0 -13 2 -13 16l14 67h-41c-40 0 -68 27 -68 65c0 6 0 12 2 18l53 250c14 64 55 84 143 84l14 66c2 11 9 17 20 17h50c11 0 13 -3 13 -17l-14 -66h67c11 0 13 -3 13 -17l-11 -50
c-2 -11 -9 -17 -20 -17h-175c-11 0 -18 -5 -20 -16l-47 -217c0 -14 2 -17 14 -17h175c11 0 13 -2 13 -16z" />
    <glyph glyph-name="sterling" unicode="&#xa3;" 
d="M357 17c-2 -11 -9 -17 -20 -17h-299c-14 0 -14 4 -14 17l121 566c10 47 55 84 101 84h150c12 0 13 -3 13 -17l-11 -50c-2 -11 -9 -17 -20 -17h-133c-11 0 -18 -5 -20 -16l-33 -150h150c12 0 14 -2 14 -17l-11 -50c-2 -11 -9 -17 -20 -17h-150l-53 -250h233
c12 0 13 -2 13 -16z" />
    <glyph glyph-name="bullet" unicode="&#x2022;" horiz-adv-x="208" 
d="M209 100c-2 -11 -9 -17 -21 -17h-133c-11 0 -13 3 -13 17l46 217c3 11 9 16 20 16h134c11 0 13 -2 13 -16z" />
    <glyph glyph-name="paragraph" unicode="&#xb6;" horiz-adv-x="542" 
d="M312 583h-67c-11 0 -18 -5 -20 -16l-28 -134c0 -14 1 -16 12 -16h67zM648 600c-2 -11 -9 -17 -20 -17h-66l-156 -732c-3 -11 -10 -17 -20 -17h-50c-13 0 -14 4 -14 17l157 732h-84l-156 -732c-2 -11 -9 -17 -20 -17h-50c-12 0 -13 2 -13 17l102 482h-83
c-41 2 -67 29 -67 66c0 6 0 11 1 18l36 166c10 47 55 84 101 84h400c12 0 13 -3 13 -17z" />
    <glyph glyph-name="germandbls" unicode="&#xdf;" 
d="M372 83c-9 -45 -54 -83 -101 -83h-107c-12 0 -14 2 -14 17l10 50c2 11 9 16 20 16h91c12 0 19 6 21 17l46 217c0 14 -1 16 -13 16h-93c-11 0 -13 3 -13 17l12 50c2 11 9 17 20 17h91c12 0 19 5 21 16l29 134c0 14 -2 16 -14 16h-149l-157 -732c-2 -11 -8 -17 -19 -17h-51
c-11 0 -13 2 -13 17l170 799c2 11 9 17 20 17h234c35 2 68 -28 68 -65c0 -6 -1 -12 -2 -19l-27 -125c-10 -45 -55 -83 -101 -83c43 -5 67 -28 67 -65c0 -6 -1 -12 -2 -18z" />
    <glyph glyph-name="registered" unicode="&#xae;" horiz-adv-x="635" 
d="M483 430c0 9 0 14 -12 14h-134l-15 -74h133c10 0 16 5 18 15zM501 164c-2 -11 -8 -16 -19 -16h-44c-10 0 -11 2 -11 16l25 118c0 13 -2 15 -12 15h-133l-29 -133c-2 -11 -8 -16 -18 -16h-44c-10 0 -12 2 -12 16l72 339c2 11 8 16 18 16h207c35 0 61 -26 61 -58l-9 -53
c-9 -41 -50 -75 -91 -75c38 -3 61 -25 61 -58zM663 578c0 12 -2 14 -12 14h-415c-10 0 -16 -5 -19 -14l-103 -489c0 -13 2 -15 12 -15h415c10 0 16 5 18 15zM630 74c-9 -41 -50 -74 -90 -74h-445c-26 0 -60 18 -60 58l111 534c10 41 50 75 91 75h445c31 2 60 -26 60 -60z
" />
    <glyph glyph-name="copyright" unicode="&#xa9;" horiz-adv-x="635" 
d="M482 164c-2 -11 -8 -16 -18 -16h-171c-32 -2 -60 26 -60 59l49 237c9 41 50 75 90 75h170c11 0 12 -2 12 -16l-9 -44c-3 -10 -9 -15 -18 -15h-156c-10 0 -16 -4 -17 -14l-42 -193c0 -9 0 -14 12 -14h156c10 0 12 -2 12 -15zM663 578c0 12 -2 14 -12 14h-415
c-10 0 -16 -5 -19 -14l-103 -489c0 -13 2 -15 12 -15h415c10 0 16 5 18 15zM630 74c-9 -41 -50 -74 -90 -74h-445c-26 0 -60 18 -60 58l111 534c10 41 50 75 91 75h445c31 2 60 -26 60 -60z" />
    <glyph glyph-name="trademark" unicode="&#x2122;" horiz-adv-x="331" 
d="M283 642c-2 -4 -5 -6 -8 -6h-41l-45 -213c-1 -4 -4 -6 -8 -6h-18c-4 0 -6 1 -6 3l46 216h-40c-4 0 -6 1 -6 3l5 22c0 4 2 6 7 6h113c3 0 5 -2 5 -6zM400 423c-1 -4 -4 -6 -8 -6h-18c-5 0 -6 0 -6 6l44 206c0 6 -1 7 -4 7h-20c-4 0 -6 -2 -7 -7l-44 -206
c-1 -4 -3 -6 -8 -6h-18c-5 0 -5 0 -5 6l43 206c0 6 0 7 -4 7h-19c-4 0 -7 -2 -8 -7l-43 -206c-1 -4 -4 -6 -8 -6h-18c-5 0 -6 0 -6 6l46 213c4 25 23 31 53 31c23 0 25 -6 25 -31c5 25 16 31 53 31c20 0 25 -14 25 -31z" />
    <glyph glyph-name="acute" unicode="&#xb4;" horiz-adv-x="192" 
d="M238 708h-66l93 125h83z" />
    <glyph glyph-name="dieresis" unicode="&#xa8;" horiz-adv-x="225" 
d="M172 708l14 67h66l-14 -67h-66zM289 708l14 67h66l-14 -67h-66z" />
    <glyph glyph-name="AE" unicode="&#xc6;" horiz-adv-x="625" 
d="M395 583h-150c-11 0 -18 -5 -20 -16l-33 -150h167zM607 17c-2 -11 -9 -17 -20 -17h-299c-14 0 -14 4 -14 17l68 316h-167l-68 -316c-2 -11 -9 -17 -20 -17h-49c-14 0 -14 4 -14 17l121 566c10 47 55 84 101 84h483c13 0 14 -4 14 -17l-12 -50c-2 -11 -8 -17 -20 -17h-232
l-37 -166h150c12 0 14 -2 14 -17l-11 -50c-2 -11 -9 -17 -20 -17h-150l-53 -250h233c12 0 13 -2 13 -16z" />
    <glyph glyph-name="Oslash" unicode="&#xd8;" 
d="M364 438l-206 -355h113c12 0 19 6 21 17zM245 583c-11 0 -18 -5 -20 -16l-73 -338l206 354h-113zM473 629c5 -11 6 -13 6 -46l-107 -500c-9 -45 -54 -83 -101 -83h-160c-23 -46 -39 -67 -51 -67c-23 1 -56 18 -56 30c0 5 0 6 39 75c-4 9 -4 9 -4 45l106 500
c10 47 55 84 101 84h160c33 60 38 67 51 67c18 0 57 -17 57 -30c0 -4 -1 -6 -41 -75z" />
    <glyph glyph-name="plusminus" unicode="&#xb1;" horiz-adv-x="292" 
d="M274 17c-2 -11 -9 -17 -20 -17h-216c-14 0 -14 4 -14 17l11 50c2 11 9 16 20 16h216c12 0 14 -1 14 -16zM328 267c-3 -11 -9 -17 -20 -17h-67l-14 -67c-3 -11 -9 -16 -20 -16h-50c-12 0 -13 2 -13 16l14 67h-67c-12 0 -13 3 -13 17l10 50c3 11 9 16 20 16h67l14 67
c2 11 9 17 20 17h50c12 0 13 -3 13 -17l-14 -67h67c12 0 13 -2 13 -16z" />
    <glyph glyph-name="yen" unicode="&#xa5;" 
d="M434 375c-14 -62 -56 -83 -143 -83l-10 -50h87c11 0 13 -3 13 -17l-7 -33c-3 -11 -9 -17 -20 -17h-87l-11 -50h87c12 0 13 -3 13 -17l-7 -33c-2 -11 -9 -17 -20 -17h-87l-10 -41c-2 -11 -9 -17 -20 -17h-49c-14 0 -14 4 -14 17l9 41h-87c-12 0 -13 3 -13 17l7 33
c2 11 9 17 20 17h87l11 50h-87c-12 0 -13 2 -13 17l6 33c3 11 9 17 21 17h87l11 50h-42c-39 0 -67 27 -67 64c0 6 1 12 2 19l58 275c2 11 9 17 20 17h50c13 0 14 -4 14 -17l-55 -258c0 -14 1 -17 13 -17h133c11 0 18 6 20 17l55 258c2 11 9 17 20 17h50c13 0 14 -4 14 -17z
" />
    <glyph glyph-name="ae" unicode="&#xe6;" horiz-adv-x="625" 
d="M310 183h-150c-11 0 -18 -5 -20 -16l-14 -67c0 -14 2 -17 12 -17h133c12 0 19 6 21 17zM588 317c0 14 -1 16 -13 16h-133c-11 0 -18 -5 -20 -16l-18 -84h150c11 0 18 6 20 17zM654 233c-10 -45 -56 -83 -101 -83h-167l-10 -50c0 -14 2 -17 12 -17h109c11 0 13 -2 13 -16
l-11 -50c-2 -11 -9 -17 -20 -17h-83c-39 0 -68 28 -68 66c0 5 1 11 2 17c-8 -45 -55 -83 -101 -83h-125c-39 0 -67 28 -67 66c0 5 0 11 2 17l21 100c8 45 55 84 101 84h167l10 50c0 14 -1 16 -13 16h-108c-13 0 -14 4 -14 17l11 50c2 11 9 17 20 17h83c40 -1 68 -28 68 -65
c0 -6 0 -12 -2 -19c10 47 55 84 101 84h125c39 0 68 -28 68 -65z" />
    <glyph glyph-name="oslash" unicode="&#xf8;" 
d="M326 257l-139 -174h84c12 0 19 6 21 17zM192 333c-11 0 -18 -5 -20 -16l-41 -191l166 207h-105zM422 377c2 -6 3 -10 3 -44l-53 -250c-9 -45 -54 -83 -101 -83h-151l-38 -47c-7 -8 -13 -11 -19 -11c-11 -1 -45 26 -45 42l32 41c-10 12 -11 18 -11 58l53 250
c10 47 54 84 100 84h171l39 48c6 7 12 11 18 11c9 0 47 -27 47 -43z" />
    <glyph glyph-name="questiondown" unicode="&#xbf;" 
d="M340 -66c-2 -11 -9 -17 -20 -17h-234c-39 2 -67 29 -67 64l38 186c8 45 54 83 101 83h150c11 0 17 6 20 17l28 133c2 11 9 17 20 17h50c11 0 13 -3 13 -17l-31 -150c-12 -47 -56 -83 -101 -83h-150c-11 0 -18 -6 -21 -17l-29 -133c0 -14 2 -17 14 -17h216
c14 0 14 -3 14 -16zM464 517c-2 -11 -9 -17 -20 -17h-50c-11 0 -13 3 -13 17l11 50c2 11 9 16 20 16h49c12 0 14 -1 14 -16z" />
    <glyph glyph-name="exclamdown" unicode="&#xa1;" horiz-adv-x="125" 
d="M90 -66c-2 -11 -9 -17 -20 -17h-50c-12 0 -13 3 -13 17l99 466c2 11 9 17 20 17h50c11 0 13 -3 13 -17zM214 517c-2 -11 -9 -17 -20 -17h-50c-11 0 -13 3 -13 17l11 50c2 11 9 16 20 16h49c12 0 14 -1 14 -16z" />
    <glyph glyph-name="guillemotleft" unicode="&#xab;" horiz-adv-x="382" 
d="M204 43c-3 -14 -53 -43 -69 -43c-6 0 -10 2 -11 7l-67 161l135 160c4 5 9 8 15 8c13 0 50 -29 50 -40c0 -6 -12 -24 -99 -129c31 -78 46 -119 46 -124zM371 43c-4 -14 -54 -43 -69 -43c-6 0 -10 2 -12 7l-67 161l135 160c5 5 10 8 16 8c11 0 50 -29 50 -41
c0 -5 -27 -40 -100 -128c32 -78 47 -119 47 -124z" />
    <glyph glyph-name="guillemotright" unicode="&#xbb;" horiz-adv-x="382" 
d="M96 7c-5 -5 -10 -7 -15 -7c-16 0 -51 28 -51 42c0 4 6 13 100 125c-31 76 -47 118 -47 126c0 12 56 43 69 43c6 0 10 -3 12 -8l67 -160zM263 7c-5 -5 -10 -7 -15 -7c-16 0 -51 28 -51 42c0 4 6 13 100 125c-32 79 -47 121 -47 127c2 11 55 42 69 42c6 0 10 -3 12 -8
l66 -160z" />
    <glyph glyph-name="ellipsis" unicode="&#x2026;" 
d="M107 17c-2 -11 -9 -17 -20 -17h-49c-14 0 -14 4 -14 17l11 50c2 11 9 16 20 16h50c12 0 13 -2 13 -16zM232 17c-2 -11 -9 -17 -20 -17h-49c-14 0 -14 4 -14 17l11 50c2 11 9 16 20 16h50c12 0 13 -2 13 -16zM357 17c-2 -11 -9 -17 -20 -17h-49c-14 0 -14 4 -14 17l11 50
c2 11 9 16 20 16h50c12 0 13 -2 13 -16z" />
    <glyph glyph-name="Agrave" unicode="&#xc0;" 
d="M392 567c0 14 -2 16 -14 16h-133c-11 0 -18 -5 -20 -16l-33 -150h167zM357 17c-2 -11 -9 -17 -20 -17h-49c-14 0 -14 4 -14 17l68 316h-167l-68 -316c-2 -11 -9 -17 -20 -17h-49c-14 0 -14 4 -14 17l121 566c10 47 55 84 101 84h167c35 2 68 -28 68 -65
c0 -6 -1 -12 -2 -19zM347 708l-57 125h84l40 -125h-67z" />
    <glyph glyph-name="Atilde" unicode="&#xc3;" 
d="M472 750c-37 -28 -67 -42 -92 -42c-12 0 -25 7 -38 21s-26 21 -37 21c-25 0 -55 -14 -92 -42l15 67c36 28 67 42 91 42c12 0 24 -7 37 -21s26 -21 38 -21c24 0 55 14 92 42zM392 567c0 14 -2 16 -14 16h-133c-11 0 -18 -5 -20 -16l-33 -150h167zM357 17
c-2 -11 -9 -17 -20 -17h-49c-14 0 -14 4 -14 17l68 316h-167l-68 -316c-2 -11 -9 -17 -20 -17h-49c-14 0 -14 4 -14 17l121 566c10 47 55 84 101 84h167c35 2 68 -28 68 -65c0 -6 -1 -12 -2 -19z" />
    <glyph glyph-name="Otilde" unicode="&#xd5;" 
d="M392 567c0 14 -2 16 -14 16h-133c-11 0 -18 -5 -20 -16l-99 -467c0 -14 2 -17 12 -17h133c12 0 19 6 21 17zM372 83c-9 -45 -54 -83 -101 -83h-167c-39 0 -67 28 -67 66c0 5 0 11 2 17l106 500c10 47 55 84 101 84h167c35 2 68 -28 68 -65c0 -6 -1 -12 -2 -19zM472 750
c-37 -28 -67 -42 -92 -42c-12 0 -25 7 -38 21s-26 21 -37 21c-25 0 -55 -14 -92 -42l15 67c36 28 67 42 91 42c12 0 24 -7 37 -21s26 -21 38 -21c24 0 55 14 92 42z" />
    <glyph glyph-name="OE" unicode="&#x152;" horiz-adv-x="625" 
d="M395 583h-150c-11 0 -18 -5 -20 -16l-99 -467c0 -14 2 -17 12 -17h151zM607 17c-2 -11 -9 -17 -20 -17h-483c-39 0 -67 28 -67 66c0 5 0 11 2 17l106 500c10 47 55 84 101 84h483c13 0 14 -4 14 -17l-12 -50c-2 -11 -8 -17 -20 -17h-232l-37 -166h150c12 0 14 -2 14 -17
l-11 -50c-2 -11 -9 -17 -20 -17h-150l-53 -250h233c12 0 13 -2 13 -16z" />
    <glyph glyph-name="oe" unicode="&#x153;" horiz-adv-x="625" 
d="M338 317c0 14 -1 16 -13 16h-133c-11 0 -18 -5 -20 -16l-46 -217c0 -14 2 -17 12 -17h133c12 0 19 6 21 17zM588 317c0 14 -1 16 -13 16h-133c-11 0 -18 -5 -20 -16l-18 -84h150c11 0 18 6 20 17zM654 233c-10 -45 -56 -83 -101 -83h-167l-10 -50c0 -14 2 -17 12 -17h109
c11 0 13 -2 13 -16l-11 -50c-2 -11 -9 -17 -20 -17h-83c-39 0 -68 28 -68 66c0 5 1 11 2 17c-8 -45 -55 -83 -101 -83h-125c-39 0 -67 28 -67 66c0 5 0 11 2 17l53 250c10 47 54 84 100 84h125c40 -1 68 -28 68 -65c0 -6 0 -12 -2 -19c10 47 55 84 101 84h125
c39 0 68 -28 68 -65z" />
    <glyph glyph-name="endash" unicode="&#x2013;" horiz-adv-x="208" 
d="M227 183c-3 -11 -9 -16 -20 -16h-134c-11 0 -13 2 -13 16l11 50c2 11 9 17 20 17h133c12 0 13 -3 13 -17z" />
    <glyph glyph-name="emdash" unicode="&#x2014;" 
d="M394 183c-3 -11 -9 -16 -20 -16h-301c-11 0 -13 2 -13 16l11 50c2 11 9 17 20 17h300c12 0 13 -2 13 -17z" />
    <glyph glyph-name="quotedblleft" unicode="&#x201c;" horiz-adv-x="250" 
d="M221 550c-3 -11 -9 -17 -20 -17h-50c-12 0 -13 3 -13 17l21 100c2 11 9 17 20 17h38c6 0 10 -3 10 -8c0 -10 -6 -17 -16 -17h-28l-6 -25h41c12 0 13 -3 13 -17zM346 550c-3 -11 -9 -17 -20 -17h-50c-12 0 -13 3 -13 17l21 100c2 11 9 17 20 17h38c6 0 10 -3 10 -8
c0 -10 -6 -17 -16 -17h-28l-6 -25h41c12 0 13 -3 13 -17z" />
    <glyph glyph-name="quotedblright" unicode="&#x201d;" horiz-adv-x="250" 
d="M221 550c-3 -11 -9 -17 -20 -17h-37c-7 0 -11 3 -11 8c0 9 5 17 15 17h29l6 25h-41c-12 0 -14 3 -14 17l11 50c2 11 9 17 20 17h50c13 0 14 -4 14 -17zM346 550c-3 -11 -9 -17 -20 -17h-37c-7 0 -11 3 -11 8c0 9 5 17 15 17h29l6 25h-41c-12 0 -14 3 -14 17l11 50
c2 11 9 17 20 17h50c13 0 14 -4 14 -17z" />
    <glyph glyph-name="quoteleft" unicode="&#x2018;" horiz-adv-x="125" 
d="M221 550c-3 -11 -9 -17 -20 -17h-50c-12 0 -13 3 -13 17l21 100c2 11 9 17 20 17h38c6 0 10 -3 10 -8c0 -10 -6 -17 -16 -17h-28l-6 -25h41c12 0 13 -3 13 -17z" />
    <glyph glyph-name="quoteright" unicode="&#x2019;" horiz-adv-x="125" 
d="M221 550c-3 -11 -9 -17 -20 -17h-37c-7 0 -11 3 -11 8c0 9 5 17 15 17h29l6 25h-41c-12 0 -14 3 -14 17l11 50c2 11 9 17 20 17h50c13 0 14 -4 14 -17z" />
    <glyph glyph-name="divide" unicode="&#xf7;" horiz-adv-x="292" 
d="M191 17c-2 -11 -9 -17 -20 -17h-50c-12 0 -14 3 -14 17l11 50c2 11 9 16 20 16h50c12 0 14 -2 14 -16zM310 183c-2 -11 -9 -16 -20 -16h-217c-11 0 -13 2 -13 16l11 50c2 11 9 17 20 17h217c11 0 13 -3 13 -17zM262 350c-3 -11 -9 -17 -20 -17h-50c-12 0 -14 2 -14 17
l11 50c2 11 9 17 20 17h50c12 0 13 -3 13 -17z" />
    <glyph glyph-name="ydieresis" unicode="&#xff;" 
d="M336 -83c-9 -45 -55 -83 -100 -83h-125c-12 0 -13 2 -13 17l10 50c3 11 9 16 20 16h109c11 0 18 6 20 17l14 66h-167c-39 0 -67 28 -67 66c0 5 0 11 2 17l67 317c2 11 9 17 20 17h50c11 0 13 -3 13 -17l-63 -300c0 -14 2 -17 12 -17h133c12 0 19 6 21 17l64 300
c2 11 9 17 20 17h50c11 0 13 -3 13 -17zM193 460l15 66h66l-14 -66h-67zM310 460l14 66h67l-15 -66h-66z" />
    <glyph glyph-name="Ydieresis" unicode="&#x178;" 
d="M247 708l14 67h67l-15 -67h-66zM364 708l14 67h66l-14 -67h-66zM336 -83c-9 -45 -55 -83 -100 -83h-125c-12 0 -13 2 -13 17l10 50c3 11 9 16 20 16h109c11 0 18 6 20 17l14 66h-167c-39 0 -67 28 -67 66c0 5 0 11 2 17l120 567c2 11 9 17 20 17h50c13 0 14 -4 14 -17
l-117 -550c0 -14 2 -17 12 -17h133c12 0 19 6 21 17l117 550c2 11 9 17 20 17h50c13 0 14 -4 14 -17z" />
    <glyph glyph-name="currency" unicode="&#xa4;" horiz-adv-x="415" 
d="M376 400c0 14 -2 17 -14 17h-133c-11 0 -18 -6 -20 -17l-28 -133c0 -13 0 -17 13 -17h134c11 0 17 6 20 17zM460 461c3 -9 3 -10 3 -42l-36 -172c-5 -21 -17 -39 -36 -55l15 -42c-2 -13 -53 -43 -64 -43c-6 0 -11 4 -14 11l-17 49h-135l-39 -49c-6 -7 -13 -11 -19 -11
c-12 1 -46 29 -46 43l34 42c-9 11 -14 24 -14 39c0 6 1 12 2 19l35 167c4 16 11 31 23 44l-21 56c2 13 53 42 64 42c6 0 11 -3 13 -11l19 -48h175l38 48c6 8 12 11 18 11c8 0 46 -27 46 -42z" />
    <glyph glyph-name="guilsinglleft" unicode="&#x2039;" horiz-adv-x="172" 
d="M176 113c-2 -11 -40 -32 -52 -32c-4 0 -7 2 -9 5l-50 122l102 120c2 4 6 5 11 5c9 0 38 -21 38 -30c0 -6 -19 -30 -75 -97c23 -60 35 -90 35 -93z" />
    <glyph glyph-name="guilsinglright" unicode="&#x203a;" horiz-adv-x="172" 
d="M94 86c-3 -3 -6 -5 -11 -5c-9 -1 -38 21 -38 31c0 3 5 9 75 94c-23 57 -35 89 -35 95c0 8 41 32 52 32c4 0 7 -1 9 -5l50 -120z" />
    <glyph glyph-name="daggerdbl" unicode="&#x2021;" horiz-adv-x="292" 
d="M328 267c-3 -11 -9 -17 -20 -17h-67l-85 -399c-3 -11 -10 -17 -20 -17h-50c-13 0 -14 4 -14 17l86 399h-67c-12 0 -13 3 -13 17l10 50c3 11 9 16 20 16h67l17 84h-66c-11 0 -13 2 -13 16l11 50c2 11 9 17 20 17h67l32 150c2 11 8 17 20 17h50c11 0 13 -3 13 -17l-32 -150
h67c11 0 13 -3 13 -17l-11 -50c-2 -11 -9 -16 -21 -16h-66l-18 -84h67c12 0 13 -2 13 -16z" />
    <glyph glyph-name="periodcentered" unicode="&#xb7;" horiz-adv-x="125" 
d="M170 308c-2 -11 -9 -16 -21 -16h-50c-11 0 -13 2 -13 16l11 50c3 11 10 17 21 17h49c12 0 13 -3 13 -17z" />
    <glyph glyph-name="quotesinglbase" unicode="&#x201a;" horiz-adv-x="125" 
d="M98 -33c-3 -11 -10 -16 -21 -16h-38c-7 0 -10 2 -10 8c0 7 5 17 16 17h29l5 24h-41c-14 0 -14 4 -14 17l11 50c2 11 9 16 20 16h50c12 0 13 -2 13 -16z" />
    <glyph glyph-name="quotedblbase" unicode="&#x201e;" horiz-adv-x="250" 
d="M98 -33c-3 -11 -10 -16 -21 -16h-38c-7 0 -10 2 -10 8c0 7 5 17 16 17h29l5 24h-41c-14 0 -14 4 -14 17l11 50c2 11 9 16 20 16h50c12 0 13 -2 13 -16zM223 -33c-3 -11 -10 -16 -21 -16h-38c-7 0 -10 2 -10 8c0 7 5 17 16 17h29l5 24h-41c-14 0 -14 4 -14 17l11 50
c2 11 9 16 20 16h50c12 0 13 -2 13 -16z" />
    <glyph glyph-name="perthousand" unicode="&#x2030;" horiz-adv-x="977" 
d="M308 567c0 14 -2 16 -13 16h-50c-11 0 -18 -5 -20 -16l-28 -134c0 -14 1 -16 12 -16h50c12 0 19 5 21 16zM631 233c0 14 -2 17 -13 17h-51c-11 0 -17 -6 -20 -17l-28 -133c0 -14 2 -17 13 -17h50c11 0 18 6 21 17zM922 233c0 14 -1 17 -13 17h-50c-11 0 -18 -6 -20 -17
l-28 -133c0 -14 2 -17 12 -17h51c11 0 18 6 20 17zM359 417c-9 -46 -54 -84 -101 -84h-83c-41 2 -67 29 -67 66c0 6 0 11 1 18l36 166c10 47 55 84 101 84h83c36 2 68 -28 68 -65c0 -6 -1 -12 -2 -19zM588 493l-380 -480c-25 -37 -41 -54 -51 -54c-6 0 -53 22 -53 39
c0 4 0 4 134 176l380 479c24 38 43 55 53 55s52 -24 52 -38c0 -5 -8 -17 -135 -177zM682 83c-9 -45 -54 -83 -101 -83h-83c-40 0 -68 28 -68 66c0 5 0 11 2 17l35 167c9 45 55 83 101 83h84c37 2 67 -28 67 -65c0 -6 -1 -12 -2 -18zM973 83c-8 -45 -54 -83 -100 -83h-84
c-39 0 -67 29 -67 67v16l37 167c9 46 54 83 101 83h83c39 0 67 -28 67 -67v-16z" />
    <glyph glyph-name="Acircumflex" unicode="&#xc2;" 
d="M392 567c0 14 -2 16 -14 16h-133c-11 0 -18 -5 -20 -16l-33 -150h167zM357 17c-2 -11 -9 -17 -20 -17h-49c-14 0 -14 4 -14 17l68 316h-167l-68 -316c-2 -11 -9 -17 -20 -17h-49c-14 0 -14 4 -14 17l121 566c10 47 55 84 101 84h167c35 2 68 -28 68 -65
c0 -6 -1 -12 -2 -19zM405 708l-51 77l-83 -77h-66l118 125h84l65 -125h-67z" />
    <glyph glyph-name="Ecircumflex" unicode="&#xca;" 
d="M405 708l-51 77l-83 -77h-66l118 125h84l65 -125h-67zM357 17c-2 -11 -9 -17 -20 -17h-299c-14 0 -14 4 -14 17l135 633c2 11 9 17 20 17h300c13 0 14 -4 14 -17l-12 -50c-2 -11 -8 -17 -20 -17h-232l-37 -166h150c12 0 14 -2 14 -17l-11 -50c-2 -11 -9 -17 -20 -17h-150
l-53 -250h233c12 0 13 -2 13 -16z" />
    <glyph glyph-name="Aacute" unicode="&#xc1;" 
d="M330 708h-66l93 125h83zM392 567c0 14 -2 16 -14 16h-133c-11 0 -18 -5 -20 -16l-33 -150h167zM357 17c-2 -11 -9 -17 -20 -17h-49c-14 0 -14 4 -14 17l68 316h-167l-68 -316c-2 -11 -9 -17 -20 -17h-49c-14 0 -14 4 -14 17l121 566c10 47 55 84 101 84h167
c35 2 68 -28 68 -65c0 -6 -1 -12 -2 -19z" />
    <glyph glyph-name="Edieresis" unicode="&#xcb;" 
d="M357 17c-2 -11 -9 -17 -20 -17h-299c-14 0 -14 4 -14 17l135 633c2 11 9 17 20 17h300c13 0 14 -4 14 -17l-12 -50c-2 -11 -8 -17 -20 -17h-232l-37 -166h150c12 0 14 -2 14 -17l-11 -50c-2 -11 -9 -17 -20 -17h-150l-53 -250h233c12 0 13 -2 13 -16zM247 708l14 67h67
l-15 -67h-66zM364 708l14 67h66l-14 -67h-66z" />
    <glyph glyph-name="Egrave" unicode="&#xc8;" 
d="M347 708l-57 125h84l40 -125h-67zM357 17c-2 -11 -9 -17 -20 -17h-299c-14 0 -14 4 -14 17l135 633c2 11 9 17 20 17h300c13 0 14 -4 14 -17l-12 -50c-2 -11 -8 -17 -20 -17h-232l-37 -166h150c12 0 14 -2 14 -17l-11 -50c-2 -11 -9 -17 -20 -17h-150l-53 -250h233
c12 0 13 -2 13 -16z" />
    <glyph glyph-name="Iacute" unicode="&#xcd;" horiz-adv-x="125" 
d="M107 17c-2 -11 -9 -17 -20 -17h-49c-14 0 -14 4 -14 17l135 633c2 11 9 17 20 17h50c13 0 14 -4 14 -17zM207 708h-67l93 125h83z" />
    <glyph glyph-name="Icircumflex" unicode="&#xce;" horiz-adv-x="125" 
d="M281 708l-51 77l-83 -77h-66l118 125h84l65 -125h-67zM107 17c-2 -11 -9 -17 -20 -17h-49c-14 0 -14 4 -14 17l135 633c2 11 9 17 20 17h50c13 0 14 -4 14 -17z" />
    <glyph glyph-name="Idieresis" unicode="&#xcf;" horiz-adv-x="125" 
d="M123 708l14 67h67l-15 -67h-66zM240 708l14 67h66l-14 -67h-66zM107 17c-2 -11 -9 -17 -20 -17h-49c-14 0 -14 4 -14 17l135 633c2 11 9 17 20 17h50c13 0 14 -4 14 -17z" />
    <glyph glyph-name="Igrave" unicode="&#xcc;" horiz-adv-x="125" 
d="M223 708l-57 125h84l40 -125h-67zM107 17c-2 -11 -9 -17 -20 -17h-49c-14 0 -14 4 -14 17l135 633c2 11 9 17 20 17h50c13 0 14 -4 14 -17z" />
    <glyph glyph-name="Oacute" unicode="&#xd3;" 
d="M330 708h-66l93 125h83zM392 567c0 14 -2 16 -14 16h-133c-11 0 -18 -5 -20 -16l-99 -467c0 -14 2 -17 12 -17h133c12 0 19 6 21 17zM372 83c-9 -45 -54 -83 -101 -83h-167c-39 0 -67 28 -67 66c0 5 0 11 2 17l106 500c10 47 55 84 101 84h167c35 2 68 -28 68 -65
c0 -6 -1 -12 -2 -19z" />
    <glyph glyph-name="Ocircumflex" unicode="&#xd4;" 
d="M405 708l-51 77l-83 -77h-66l118 125h84l65 -125h-67zM392 567c0 14 -2 16 -14 16h-133c-11 0 -18 -5 -20 -16l-99 -467c0 -14 2 -17 12 -17h133c12 0 19 6 21 17zM372 83c-9 -45 -54 -83 -101 -83h-167c-39 0 -67 28 -67 66c0 5 0 11 2 17l106 500c10 47 55 84 101 84
h167c35 2 68 -28 68 -65c0 -6 -1 -12 -2 -19z" />
    <glyph glyph-name="Ograve" unicode="&#xd2;" 
d="M347 708l-57 125h84l40 -125h-67zM392 567c0 14 -2 16 -14 16h-133c-11 0 -18 -5 -20 -16l-99 -467c0 -14 2 -17 12 -17h133c12 0 19 6 21 17zM372 83c-9 -45 -54 -83 -101 -83h-167c-39 0 -67 28 -67 66c0 5 0 11 2 17l106 500c10 47 55 84 101 84h167
c35 2 68 -28 68 -65c0 -6 -1 -12 -2 -19z" />
    <glyph glyph-name="Uacute" unicode="&#xda;" 
d="M372 83c-9 -45 -54 -83 -101 -83h-167c-39 0 -67 28 -67 66c0 5 0 11 2 17l120 567c2 11 9 17 20 17h50c13 0 14 -4 14 -17l-117 -550c0 -14 2 -17 12 -17h133c12 0 19 6 21 17l117 550c2 11 9 17 20 17h50c13 0 14 -4 14 -17zM330 708h-66l93 125h83z" />
    <glyph glyph-name="Ucircumflex" unicode="&#xdb;" 
d="M405 708l-51 77l-83 -77h-66l118 125h84l65 -125h-67zM372 83c-9 -45 -54 -83 -101 -83h-167c-39 0 -67 28 -67 66c0 5 0 11 2 17l120 567c2 11 9 17 20 17h50c13 0 14 -4 14 -17l-117 -550c0 -14 2 -17 12 -17h133c12 0 19 6 21 17l117 550c2 11 9 17 20 17h50
c13 0 14 -4 14 -17z" />
    <glyph glyph-name="Ugrave" unicode="&#xd9;" 
d="M347 708l-57 125h84l40 -125h-67zM372 83c-9 -45 -54 -83 -101 -83h-167c-39 0 -67 28 -67 66c0 5 0 11 2 17l120 567c2 11 9 17 20 17h50c13 0 14 -4 14 -17l-117 -550c0 -14 2 -17 12 -17h133c12 0 19 6 21 17l117 550c2 11 9 17 20 17h50c13 0 14 -4 14 -17z" />
    <glyph glyph-name="circumflex" unicode="&#x2c6;" horiz-adv-x="308" 
d="M372 708l-51 77l-83 -77h-66l118 125h84l64 -125h-66z" />
    <glyph glyph-name="tilde" unicode="&#x2dc;" horiz-adv-x="292" 
d="M430 750c-36 -28 -67 -42 -92 -42c-12 0 -25 7 -38 21s-25 21 -37 21c-24 0 -55 -14 -91 -42l14 67c37 28 67 42 91 42c12 0 24 -7 37 -21s26 -21 39 -21c24 0 55 14 91 42z" />
    <glyph glyph-name="macron" unicode="&#xaf;" horiz-adv-x="417" 
d="M132 625l10 42h416l-9 -42h-417z" />
    <glyph glyph-name="nonbreakingspace" unicode="&#xa0;" horiz-adv-x="292" 
 />
    <glyph glyph-name="numbersign" unicode="#" horiz-adv-x="425" 
d="M284 517l-24 -84h83l25 84h-84zM486 383c-2 -11 -9 -16 -20 -16h-76l-20 -67c-4 -11 -11 -17 -22 -17h-34c-8 0 -12 3 -12 9l21 75h-83l-20 -67c-4 -11 -11 -17 -23 -17h-33c-8 0 -12 3 -12 9l21 75h-57c-12 0 -13 3 -13 16l6 34c3 11 9 16 21 16h63l24 84h-70
c-11 0 -13 2 -13 16l8 34c2 11 9 16 20 16h75l20 67c4 11 11 17 22 17h34c10 0 11 -2 11 -17l-20 -67h84l20 67c3 11 10 17 21 17h33c11 0 12 -2 12 -17l-20 -67h58c11 0 13 -2 13 -16l-7 -34c-3 -11 -9 -16 -20 -16h-64l-24 -84h70c11 0 13 -3 13 -16z" />
    <glyph glyph-name="exclam" unicode="!" horiz-adv-x="125" 
d="M107 17c-2 -11 -9 -17 -20 -17h-49c-14 0 -14 4 -14 17l11 50c2 11 9 16 20 16h50c12 0 13 -2 13 -16zM144 183c-3 -11 -9 -16 -20 -16h-51c-11 0 -13 2 -13 16l99 467c2 11 9 17 20 17h50c13 0 14 -4 14 -17z" />
    <glyph glyph-name="quotedbl" unicode="&#x22;" horiz-adv-x="250" 
d="M221 550c-3 -11 -9 -17 -20 -17h-37c-7 0 -11 3 -11 8c0 9 5 17 15 17h29l6 25h-41c-12 0 -14 3 -14 17l11 50c2 11 9 17 20 17h50c13 0 14 -4 14 -17zM346 550c-3 -11 -9 -17 -20 -17h-37c-7 0 -11 3 -11 8c0 9 5 17 15 17h29l6 25h-41c-12 0 -14 3 -14 17l11 50
c2 11 9 17 20 17h50c13 0 14 -4 14 -17z" />
    <glyph glyph-name="Scaron" unicode="&#x160;" 
d="M372 83c-9 -45 -54 -83 -101 -83h-233c-14 0 -14 4 -14 17l11 50c2 11 9 16 20 16h216c12 0 19 6 21 17l46 217c0 14 -1 16 -13 16h-150c-41 2 -67 29 -67 66c0 6 0 11 1 18l36 166c10 47 55 84 101 84h233c13 0 14 -4 14 -17l-12 -50c-2 -11 -8 -17 -20 -17h-216
c-11 0 -18 -5 -20 -16l-28 -134c0 -14 1 -16 12 -16h150c39 0 68 -28 68 -65c0 -6 -1 -12 -2 -19zM405 708l-51 77l-83 -77h-66l118 125h84l65 -125h-67z" />
    <glyph glyph-name="scaron" unicode="&#x161;" 
d="M372 83c-9 -45 -54 -83 -101 -83h-233c-14 0 -14 4 -14 17l11 50c2 11 9 16 20 16h216c12 0 19 6 21 17l11 50c0 14 -2 17 -13 17h-150c-35 -4 -68 27 -68 65c0 5 1 12 2 18l18 83c10 47 54 84 100 84h234c11 0 13 -3 13 -17l-11 -50c-2 -11 -9 -17 -20 -17h-216
c-11 0 -18 -5 -20 -16l-11 -50c0 -13 0 -17 13 -17h150c39 0 67 -28 67 -67v-16zM328 460h-83l-65 125h67l49 -77l84 77h66z" />
    <glyph glyph-name="brokenbar" unicode="&#xa6;" horiz-adv-x="125" 
d="M90 -66c-2 -11 -9 -17 -20 -17h-50c-12 0 -13 3 -13 17l72 341c2 11 9 17 20 17h50c12 0 14 -2 14 -17zM188 392c-3 -11 -9 -17 -21 -17h-49c-14 0 -14 4 -14 17l73 341c2 11 9 17 20 17h50c11 0 13 -3 13 -17z" />
    <glyph glyph-name="Yacute" unicode="&#xdd;" 
d="M336 -83c-9 -45 -55 -83 -100 -83h-125c-12 0 -13 2 -13 17l10 50c3 11 9 16 20 16h109c11 0 18 6 20 17l14 66h-167c-39 0 -67 28 -67 66c0 5 0 11 2 17l120 567c2 11 9 17 20 17h50c13 0 14 -4 14 -17l-117 -550c0 -14 2 -17 12 -17h133c12 0 19 6 21 17l117 550
c2 11 9 17 20 17h50c13 0 14 -4 14 -17zM330 708h-66l93 125h83z" />
    <glyph glyph-name="yacute" unicode="&#xfd;" 
d="M277 459h-67l94 125h83zM336 -83c-9 -45 -55 -83 -100 -83h-125c-12 0 -13 2 -13 17l10 50c3 11 9 16 20 16h109c11 0 18 6 20 17l14 66h-167c-39 0 -67 28 -67 66c0 5 0 11 2 17l67 317c2 11 9 17 20 17h50c11 0 13 -3 13 -17l-63 -300c0 -14 2 -17 12 -17h133
c12 0 19 6 21 17l64 300c2 11 9 17 20 17h50c11 0 13 -3 13 -17z" />
    <glyph glyph-name="Thorn" unicode="&#xde;" 
d="M365 442c0 13 0 16 -13 16h-150l-54 -250h150c11 0 18 6 20 17zM398 208c-11 -46 -55 -83 -101 -83h-166l-24 -108c-2 -11 -9 -17 -20 -17h-49c-14 0 -14 4 -14 17l135 633c2 11 9 17 20 17h50c13 0 14 -4 14 -17l-24 -108h167c37 1 68 -28 68 -65c0 -6 -1 -12 -2 -19z
" />
    <glyph glyph-name="thorn" unicode="&#xfe;" 
d="M338 317c0 14 -1 16 -13 16h-150l-53 -250h149c12 0 19 6 21 17zM372 83c-9 -45 -54 -83 -101 -83h-167l-22 -107c-3 -11 -10 -17 -21 -17h-50c-11 0 -12 3 -12 17l133 632c3 11 9 17 20 17h51c11 0 13 -3 13 -17l-24 -108h167c39 0 68 -28 68 -65c0 -6 -1 -12 -2 -19z
" />
    <glyph glyph-name="multiply" unicode="&#xd7;" horiz-adv-x="287" 
d="M288 126l-43 -35c-3 -3 -7 -5 -13 -5c-4 0 -7 2 -10 5l-47 58l-71 -58c-4 -3 -8 -5 -13 -5s-9 2 -11 5l-27 35c-2 2 -4 5 -4 8c0 5 4 11 9 15l70 59l-45 60c-2 2 -3 4 -3 8c0 6 2 10 7 15l43 35c4 3 9 5 13 5s7 -2 10 -5l47 -58l71 58c5 3 9 5 13 5c5 0 8 -2 11 -5
l27 -35c2 -3 4 -6 4 -9c0 -5 -4 -11 -9 -14l-70 -60l45 -59c3 -3 4 -5 4 -8c0 -5 -4 -11 -8 -15z" />
    <glyph glyph-name="euro" unicode="&#x20ac;" horiz-adv-x="417" 
d="M399 17c-2 -11 -9 -17 -20 -17h-191c-40 0 -67 29 -67 67v16l31 142h-84l30 67h68l18 83h-48l30 67h32l31 141c9 47 54 84 100 84h209l-37 -84h-173c-11 0 -18 -5 -20 -16l-26 -125h157l-29 -67h-142l-19 -83h125l-31 -67h-108l-26 -125c0 -14 2 -17 13 -17h174
c12 0 14 -1 14 -16z" />
  </font>
</defs>
</svg>
